<svg width="283" height="284" viewBox="0 0 283 284" fill="none" xmlns="http://www.w3.org/2000/svg">
<g clip-path="url(#clip0_12065_8375)">
<path d="M141.485 283.841C219.625 283.841 282.97 220.301 282.97 141.921C282.97 63.54 219.625 0 141.485 0C63.345 0 0 63.54 0 141.921C0 220.301 63.345 283.841 141.485 283.841Z" fill="url(#paint0_linear_12065_8375)"/>
<path d="M281.838 159.966C266.245 153.133 245.944 149.862 233.267 154.626C221.369 159.1 223.282 167.975 211.074 171.64C191.373 177.556 177.724 157.052 148.41 158.027C122.326 158.893 113.287 175.783 93.5803 171.64C81.2903 169.059 78.9646 161.262 70.2148 155.761C55.5578 146.544 27.4169 146.643 0.361328 151.915C2.82656 187.426 18.3105 219.34 42.0636 242.881C68.7832 247.837 97.8544 250.486 126.218 249.428C176.055 247.572 226.46 234.187 260.793 218.246C271.78 201.003 279.155 181.221 281.843 159.966H281.838Z" fill="url(#paint1_linear_12065_8375)"/>
<path d="M229.215 260.781C229.215 261.704 195.327 262.445 153.522 262.445C111.716 262.445 77.8281 261.699 77.8281 260.781C77.8281 259.864 111.716 259.117 153.522 259.117C195.327 259.117 229.215 259.864 229.215 260.781Z" fill="#D0DFF3"/>
<path d="M220.052 80.7008H185.838C183.838 80.7008 182.008 79.975 180.592 78.7671C178.846 77.2741 177.734 75.0553 177.734 72.5721C177.734 70.3273 178.639 68.2952 180.107 66.8229C181.574 65.3506 183.6 64.4434 185.838 64.4434H220.052C222.29 64.4434 224.315 65.3506 225.783 66.8229C227.251 68.2952 228.155 70.3273 228.155 72.5721C228.155 74.8168 227.251 76.849 225.783 78.3213C224.315 79.7935 222.29 80.7008 220.052 80.7008Z" fill="#D8E2F4"/>
<path d="M211.92 69.8976C213.491 63.2828 209.418 56.643 202.824 55.0671C196.229 53.4913 189.61 57.5761 188.039 64.1909C186.468 70.8056 190.54 77.4455 197.135 79.0213C203.729 80.5972 210.349 76.5123 211.92 69.8976Z" fill="#D8E2F4"/>
<path d="M74.8258 61.0214H24.6166C21.3348 61.0214 18.358 59.6839 16.208 57.5273C14.058 55.3707 12.7246 52.3847 12.7246 49.0927C12.7246 46.7443 13.4016 44.5514 14.5696 42.7059C16.6783 39.3725 20.3891 37.1641 24.6166 37.1641H74.8258C78.1076 37.1641 81.0845 38.5016 83.2345 40.6582C85.3845 42.8148 86.7178 45.8008 86.7178 49.0927C86.7178 52.1669 85.5602 54.9663 83.6583 57.0815C81.4825 59.5025 78.3298 61.0214 74.8258 61.0214Z" fill="white"/>
<path d="M45.3972 59.0929C55.3474 59.0929 63.4136 51.0019 63.4136 41.0211C63.4136 31.0403 55.3474 22.9492 45.3972 22.9492C35.4471 22.9492 27.3809 31.0403 27.3809 41.0211C27.3809 51.0019 35.4471 59.0929 45.3972 59.0929Z" fill="white"/>
<path d="M165.072 83.6777H106.822C98.7124 83.6777 92.1387 90.2717 92.1387 98.4058V245.972C92.1387 254.106 98.7124 260.7 106.822 260.7H165.072C173.182 260.7 179.755 254.106 179.755 245.972V98.4058C179.755 90.2717 173.182 83.6777 165.072 83.6777Z" fill="white"/>
<path d="M165.077 262.25H106.821C97.8699 262.25 90.5879 254.945 90.5879 245.967V98.4005C90.5879 89.4216 97.8699 82.1172 106.821 82.1172H165.077C174.029 82.1172 181.311 89.4216 181.311 98.4005V245.967C181.311 254.945 174.029 262.25 165.077 262.25ZM106.821 85.2328C99.5806 85.2328 93.6888 91.1427 93.6888 98.4057V245.972C93.6888 253.235 99.5806 259.145 106.821 259.145H165.077C172.318 259.145 178.21 253.235 178.21 245.972V98.4057C178.21 91.1427 172.318 85.2328 165.077 85.2328H106.821Z" fill="#E0E9F3"/>
<path d="M164.354 252.704H107.55C106.693 252.704 106 252.01 106 251.149C106 250.288 106.693 249.594 107.55 249.594H164.354C165.212 249.594 165.905 250.288 165.905 251.149C165.905 252.01 165.212 252.704 164.354 252.704Z" fill="#E0E9F3"/>
<path d="M107.354 95.6682C107.354 97.2597 106.067 98.5454 104.486 98.5454C102.904 98.5454 101.617 97.2545 101.617 95.6682C101.617 94.0819 102.904 92.791 104.486 92.791C106.067 92.791 107.354 94.0819 107.354 95.6682Z" fill="#E0E9F3"/>
<path d="M88.3919 260.781C88.3919 261.704 83.3736 262.445 77.1769 262.445C70.9803 262.445 65.9619 261.699 65.9619 260.781C65.9619 259.864 70.9803 259.117 77.1769 259.117C83.3736 259.117 88.3919 259.864 88.3919 260.781Z" fill="#D0DFF3"/>
<path d="M61.9981 210.568C61.6053 212.538 63.962 212.932 64.3548 215.685C64.7476 218.443 63.5692 219.226 63.962 220.802C64.3548 222.378 66.7115 222.772 67.0991 226.706C67.4919 230.641 65.9208 230.247 66.3135 232.611C66.7063 234.975 69.063 234.975 69.4506 236.94C69.8382 238.905 69.8434 241.663 70.629 244.026C71.4146 246.39 73.7661 249.931 74.9444 249.931C76.1228 249.931 79.2599 243.238 78.4743 241.274C77.6888 239.309 76.5104 238.91 76.5104 237.339C76.5104 235.768 78.0815 231.828 77.6888 229.07C77.296 226.312 73.7661 225.136 73.3733 223.166C72.9805 221.196 74.1589 216.079 71.4094 213.72C68.6599 211.356 62.3857 208.603 61.9929 210.573L61.9981 210.568Z" fill="#3FB790"/>
<path d="M74.7632 249.252C74.6546 249.252 74.5668 249.164 74.5668 249.055C74.5668 249.003 74.5306 243.887 73.037 242.388C71.5227 240.87 70.6544 236.214 70.2307 227.303C69.8482 219.205 64.0598 212.533 64.003 212.466C63.9306 212.383 63.941 212.258 64.0185 212.186C64.1012 212.113 64.2252 212.124 64.2975 212.201C64.3544 212.269 70.2358 219.039 70.6234 227.282C71.0369 235.97 71.8896 240.683 73.3109 242.108C74.9182 243.721 74.9544 248.832 74.9544 249.05C74.9544 249.159 74.8665 249.247 74.758 249.247L74.7632 249.252Z" fill="#34916F"/>
<path d="M97.917 216.525C99.3021 217.914 94.7799 218.495 94.3871 221.248C93.9943 224.001 93.9943 225.183 92.4232 226.759C90.852 228.335 88.5005 228.729 88.8933 231.087C89.2861 233.451 90.0716 235.81 88.8933 236.992C87.7149 238.174 84.9706 238.174 84.185 240.139C83.3995 242.104 83.7923 244.468 82.2211 246.438C80.65 248.408 78.2984 252.342 76.3345 251.554C74.3706 250.766 75.549 241.715 76.3345 240.139C77.1201 238.563 77.9057 237.381 77.9057 236.204C77.9057 235.027 77.5129 233.057 78.2984 231.087C79.084 229.117 83.3995 228.329 83.7923 227.153C84.185 225.976 84.5778 219.672 86.9294 218.101C89.2861 216.525 95.5603 214.166 97.917 216.525Z" fill="#4FC7A0"/>
<path d="M76.9442 250.88C76.908 250.88 76.877 250.869 76.8408 250.854C76.7478 250.797 76.7168 250.677 76.7736 250.584C76.7892 250.558 78.3603 247.919 78.6911 246.587C78.7789 246.245 78.8823 245.721 79.0011 245.12C79.4353 242.932 80.0916 239.635 81.0994 238.619C82.562 237.152 84.9032 232.652 86.5416 226.898C88.5623 219.806 95.2397 217.732 95.3068 217.712C95.4102 217.68 95.5187 217.737 95.5497 217.846C95.5808 217.95 95.5239 218.059 95.4205 218.09C95.3534 218.111 88.8776 220.127 86.9188 227.007C85.2599 232.829 82.8773 237.396 81.3734 238.899C80.4482 239.827 79.7815 243.186 79.3836 245.198C79.2647 245.804 79.1614 246.328 79.0735 246.68C78.7272 248.07 77.1768 250.672 77.1096 250.781C77.0734 250.843 77.0062 250.874 76.939 250.874L76.9442 250.88Z" fill="#3FB690"/>
<path d="M76.4435 221.03C71.7353 221.423 73.3064 235.592 73.3064 235.592C74.4848 247.795 76.0559 253.306 77.2291 253.7C78.4023 254.094 80.759 236.38 80.759 232.051C80.759 232.051 81.1517 220.636 76.4435 221.03Z" fill="#90DAD8"/>
<path d="M77.0326 251.735C77.0326 251.735 77.0171 251.735 77.0067 251.735C76.8982 251.72 76.8207 251.626 76.8362 251.518C78.3866 238.697 76.4641 222.595 76.4434 222.435C76.4279 222.326 76.5054 222.227 76.6139 222.217C76.7173 222.201 76.8207 222.279 76.831 222.388C76.8517 222.549 78.7794 238.697 77.2238 251.564C77.2134 251.663 77.1256 251.735 77.0274 251.735H77.0326Z" fill="white"/>
<path d="M82.8776 260.694H70.939C70.541 260.694 70.2051 260.451 70.1586 260.129L68.4221 247.708C68.3445 247.148 68.7787 246.65 69.3368 246.65H84.4745C85.0379 246.65 85.472 247.148 85.3945 247.708L83.658 260.129C83.6114 260.451 83.2755 260.694 82.8776 260.694Z" fill="#D0DAED"/>
<path d="M198.811 258.32H203.622V212.016H205.969V230.305H209.607V212.016H211.953V232.659H205.969V258.325H210.78C211.426 258.325 211.953 258.854 211.953 259.502C211.953 260.15 211.426 260.679 210.78 260.679H198.816C198.17 260.679 197.643 260.15 197.643 259.502C197.643 258.854 198.17 258.325 198.816 258.325L198.811 258.32Z" fill="#3FB790"/>
<path d="M207.489 201.969C217.706 201.969 225.991 203.902 225.991 206.282V208.615C225.991 210.999 217.706 212.928 207.489 212.928C197.271 212.928 188.986 210.994 188.986 208.615V206.282C188.986 203.897 197.271 201.969 207.489 201.969Z" fill="#50C6A1"/>
<path opacity="0.1" d="M183.733 144.814C186.879 138.843 184.603 131.444 178.649 128.288C172.696 125.133 165.32 127.417 162.174 133.388C159.028 139.36 161.305 146.759 167.258 149.914C173.212 153.069 180.588 150.786 183.733 144.814Z" fill="white"/>
<path opacity="0.17" d="M180.619 135.343C180.18 135.343 179.771 135.057 179.632 134.617C179.198 133.227 178.252 132.087 176.965 131.413C175.678 130.734 174.205 130.604 172.82 131.04C172.277 131.211 171.693 130.905 171.523 130.361C171.352 129.816 171.657 129.231 172.2 129.059C174.112 128.458 176.143 128.645 177.921 129.578C179.699 130.511 181.007 132.082 181.601 134.005C181.771 134.549 181.467 135.135 180.924 135.306C180.821 135.337 180.717 135.353 180.614 135.353L180.619 135.343Z" fill="#50C6A1"/>
<path d="M168.597 125.113C160.902 127.524 156.612 135.735 159.015 143.454C161.418 151.174 169.605 155.476 177.3 153.066C184.996 150.655 189.285 142.444 186.882 134.724C184.479 127.005 176.293 122.702 168.597 125.113ZM176.587 150.764C170.158 152.776 163.32 149.183 161.315 142.739C159.31 136.29 162.891 129.431 169.315 127.42C175.745 125.409 182.582 129.001 184.588 135.445C186.593 141.894 183.011 148.753 176.587 150.764Z" fill="#D0DAED"/>
<path d="M178.377 152.214L175.955 152.973L179.404 164.047L181.826 163.288L178.377 152.214Z" fill="#D0DAED"/>
<path d="M186.805 183.57C185.26 184.057 183.611 183.191 183.125 181.636L177.823 164.606C177.565 163.782 178.024 162.906 178.846 162.646L181.477 161.822C182.299 161.563 183.172 162.024 183.43 162.849L188.733 179.878C189.219 181.429 188.356 183.082 186.805 183.57Z" fill="url(#paint2_linear_12065_8375)"/>
<path d="M187.828 176.089C187.828 176.089 182.365 172.709 180.717 170.962C179.068 169.215 178.37 168.422 178.794 168.048C179.218 167.675 183.833 169.712 184.278 169.37C184.722 169.028 184.334 168.173 184.836 167.789C185.337 167.405 188.314 170.48 189.017 170.246C189.725 170.013 188.65 175.544 187.828 176.089Z" fill="#FFAA9D"/>
<path d="M166.039 239.019L162.033 242.907L151.883 233.488L155.221 228.039L166.039 239.019Z" fill="#FFAA9D"/>
<path d="M162.623 242.338C162.623 242.338 159.827 245.847 159.305 245.858C158.783 245.868 147.062 233.146 147.139 232.737C147.217 232.327 152.333 232.768 152.333 232.768L162.628 242.338H162.623Z" fill="url(#paint3_linear_12065_8375)"/>
<path d="M154.602 227.469C154.602 227.469 166.333 239.771 166.788 239.771C167.243 239.771 223.235 196.644 223.235 196.644L199.498 186.084C199.498 186.084 169.357 194.394 154.602 227.469Z" fill="url(#paint4_linear_12065_8375)"/>
<path d="M207.757 231.154L209.742 236.38L197.11 242.031L193.431 236.805L207.757 231.154Z" fill="#FFAA9D"/>
<path d="M197.653 186.084C197.653 186.084 177.833 190.231 176.117 196.96C174.401 203.689 175.962 211.046 181.425 219.656C186.888 228.267 192.444 237.63 193.586 237.936C193.586 237.936 208.258 232.041 208.594 231.305C208.925 230.569 200.377 210.309 200.377 210.309C200.377 210.309 217.799 209.148 221.861 198.842L197.653 186.084Z" fill="url(#paint5_linear_12065_8375)"/>
<path d="M196.268 186.027C196.087 187.199 217.736 200.797 221.566 200.143C225.396 199.485 230.352 183.622 228.982 171.776C227.613 159.93 217.034 151.045 212.212 151.459C207.39 151.874 204.806 156.41 204.149 163.621C203.188 174.202 196.469 184.715 196.268 186.022V186.027Z" fill="url(#paint6_linear_12065_8375)"/>
<path d="M214.372 153.278C216.925 153.055 225.706 158.219 227.758 173.46C229.809 188.696 221.421 189.977 214.372 188.992C207.323 188.007 189.585 179.277 186.986 176.156C186.986 176.156 186.427 171.247 188.309 169.51C188.309 169.51 205.421 171.257 209.86 172.594C214.3 173.932 204.692 154.129 214.367 153.284L214.372 153.278Z" fill="url(#paint7_linear_12065_8375)"/>
<path d="M209.447 235.613C209.447 235.613 211.566 239.574 211.365 240.061C211.163 240.549 194.894 246.344 194.553 246.116C194.211 245.888 196.625 241.342 196.625 241.342L209.452 235.618L209.447 235.613Z" fill="url(#paint8_linear_12065_8375)"/>
<path d="M200.041 143.382L199.958 148.83L200.769 148.805C200.769 148.805 201.421 153.31 204.594 152.599C205.504 152.397 206.666 151.62 207.002 151.775C207.4 151.956 207.571 153.19 207.664 153.548C208.01 154.911 212.77 153.532 212 152.138C211.266 150.811 210.176 148.996 210.408 148.494C211.214 146.736 211.442 142.376 207.069 140.919C203.586 139.758 200.087 141.516 200.046 143.382H200.041Z" fill="#FFAA9D"/>
<path d="M211.995 152.139C211.261 150.811 210.17 148.997 210.403 148.494C210.403 148.494 208.563 151.33 206.868 151.76C206.868 151.76 206.863 151.76 206.857 151.76C206.914 151.76 206.961 151.76 206.997 151.776C207.395 151.957 207.565 153.191 207.658 153.549C208.005 154.912 212.765 153.533 211.995 152.139Z" fill="#FF9F91"/>
<path d="M207.38 146.052C209.426 145.7 208.155 150.272 210.408 150.122C212.662 149.971 214.233 145.031 212.579 141.22C210.925 137.41 207.783 137.623 204.785 138.141C201.788 138.659 198.113 140.018 198.118 142.294C198.123 147.763 204.578 143.175 205.002 144.818C205.333 146.088 205.839 149.769 204.527 149.852C203.214 149.935 201.875 148.851 200.837 149.126C200.237 149.287 198.594 156.462 202.894 156.7C207.147 156.939 208.227 153.17 207.328 150.096C206.475 147.172 206.387 146.223 207.385 146.052H207.38Z" fill="#14336A"/>
</g>
<defs>
<linearGradient id="paint0_linear_12065_8375" x1="141.485" y1="255.639" x2="141.485" y2="-28.1965" gradientUnits="userSpaceOnUse">
<stop stop-color="#FEFEFD"/>
<stop offset="1" stop-color="#EBF3FF"/>
</linearGradient>
<linearGradient id="paint1_linear_12065_8375" x1="141.097" y1="244.643" x2="141.097" y2="163.486" gradientUnits="userSpaceOnUse">
<stop stop-color="#FEFEFD"/>
<stop offset="0.84" stop-color="#EBF3FF"/>
</linearGradient>
<linearGradient id="paint2_linear_12065_8375" x1="179.735" y1="160.855" x2="183.007" y2="171.295" gradientUnits="userSpaceOnUse">
<stop stop-color="#90DAD8"/>
<stop offset="1" stop-color="#3FB790"/>
</linearGradient>
<linearGradient id="paint3_linear_12065_8375" x1="155.947" y1="236.119" x2="153.419" y2="239.258" gradientUnits="userSpaceOnUse">
<stop stop-color="#14336D"/>
<stop offset="0.97" stop-color="#0E2253"/>
</linearGradient>
<linearGradient id="paint4_linear_12065_8375" x1="166.928" y1="224.358" x2="184.553" y2="210.202" gradientUnits="userSpaceOnUse">
<stop stop-color="#14336D"/>
<stop offset="0.97" stop-color="#0E2253"/>
</linearGradient>
<linearGradient id="paint5_linear_12065_8375" x1="192.123" y1="210.745" x2="222.999" y2="221.908" gradientUnits="userSpaceOnUse">
<stop stop-color="#14336D"/>
<stop offset="0.97" stop-color="#0E2253"/>
</linearGradient>
<linearGradient id="paint6_linear_12065_8375" x1="202.878" y1="158.873" x2="218.472" y2="187.988" gradientUnits="userSpaceOnUse">
<stop stop-color="#3162DF"/>
<stop offset="0.96" stop-color="#173DB8"/>
</linearGradient>
<linearGradient id="paint7_linear_12065_8375" x1="207.478" y1="172.973" x2="225.211" y2="210.236" gradientUnits="userSpaceOnUse">
<stop stop-color="#3162DF"/>
<stop offset="0.96" stop-color="#173DB8"/>
</linearGradient>
<linearGradient id="paint8_linear_12065_8375" x1="201.158" y1="239.289" x2="203.058" y2="242.845" gradientUnits="userSpaceOnUse">
<stop stop-color="#14336D"/>
<stop offset="0.97" stop-color="#0E2253"/>
</linearGradient>
<clipPath id="clip0_12065_8375">
<rect width="283" height="284" fill="white"/>
</clipPath>
</defs>
</svg>
