<svg xmlns="http://www.w3.org/2000/svg" width="283" height="284" fill="none"><path fill="url(#a)" d="M141.485 283.841c78.14 0 141.485-63.54 141.485-141.92C282.97 63.54 219.625 0 141.485 0 63.345 0 0 63.54 0 141.921c0 78.38 63.345 141.92 141.485 141.92Z"/><path fill="url(#b)" d="M281.838 159.966c-15.593-6.833-35.894-10.104-48.571-5.34-11.898 4.474-9.985 13.349-22.193 17.014-19.701 5.916-33.35-14.588-62.664-13.613-26.084.866-35.123 17.756-54.83 13.613-12.29-2.581-14.615-10.378-23.365-15.879-14.657-9.217-42.798-9.118-69.854-3.846 2.466 35.511 17.95 67.425 41.703 90.966 26.72 4.956 55.79 7.605 84.154 6.547 49.837-1.856 100.242-15.241 134.575-31.182a141.299 141.299 0 0 0 21.05-58.28h-.005Z"/><path fill="#D0DFF3" d="M229.215 260.781c0 .923-33.888 1.664-75.693 1.664-41.806 0-75.694-.746-75.694-1.664 0-.917 33.888-1.664 75.694-1.664 41.805 0 75.693.747 75.693 1.664Z"/><path fill="#D8E2F4" d="M220.052 80.7h-34.214c-2 0-3.83-.725-5.246-1.933a8.13 8.13 0 0 1-2.858-6.195c0-2.245.905-4.277 2.373-5.75a8.062 8.062 0 0 1 5.731-2.379h34.214c2.238 0 4.263.908 5.731 2.38a8.113 8.113 0 0 1 2.372 5.75 8.114 8.114 0 0 1-2.372 5.748 8.064 8.064 0 0 1-5.731 2.38Z"/><path fill="#D8E2F4" d="M211.92 69.898c1.571-6.615-2.502-13.255-9.096-14.83-6.595-1.577-13.214 2.508-14.785 9.123-1.571 6.615 2.501 13.254 9.096 14.83 6.594 1.576 13.214-2.509 14.785-9.123Z"/><path fill="#fff" d="M74.826 61.021h-50.21a11.845 11.845 0 0 1-8.408-3.494 11.918 11.918 0 0 1-3.483-8.434c0-2.349.677-4.542 1.845-6.387 2.108-3.334 5.82-5.542 10.047-5.542h50.209c3.282 0 6.259 1.338 8.409 3.494a11.918 11.918 0 0 1 3.483 8.435c0 3.074-1.158 5.873-3.06 7.988a11.842 11.842 0 0 1-8.832 3.94Z"/><path fill="#fff" d="M45.397 59.093c9.95 0 18.017-8.091 18.017-18.072 0-9.98-8.067-18.072-18.017-18.072S27.381 31.04 27.381 41.021c0 9.98 8.066 18.072 18.016 18.072ZM165.072 83.678h-58.25c-8.11 0-14.683 6.594-14.683 14.728v147.566c0 8.134 6.573 14.728 14.683 14.728h58.25c8.11 0 14.683-6.594 14.683-14.728V98.406c0-8.134-6.573-14.728-14.683-14.728Z"/><path fill="#E0E9F3" d="M165.077 262.25h-58.256c-8.951 0-16.233-7.305-16.233-16.283V98.4c0-8.978 7.282-16.283 16.233-16.283h58.256c8.952 0 16.234 7.305 16.234 16.283v147.567c0 8.978-7.282 16.283-16.234 16.283ZM106.821 85.233c-7.24 0-13.132 5.91-13.132 13.173v147.566c0 7.263 5.892 13.173 13.132 13.173h58.256c7.241 0 13.133-5.91 13.133-13.173V98.406c0-7.263-5.892-13.173-13.133-13.173h-58.256Z"/><path fill="#E0E9F3" d="M164.354 252.704H107.55a1.55 1.55 0 0 1-1.55-1.555 1.55 1.55 0 0 1 1.55-1.555h56.804a1.55 1.55 0 0 1 1.551 1.555 1.55 1.55 0 0 1-1.551 1.555ZM107.354 95.668a2.873 2.873 0 0 1-2.868 2.877 2.876 2.876 0 0 1-2.869-2.877 2.876 2.876 0 0 1 2.869-2.877 2.876 2.876 0 0 1 2.868 2.877Z"/><path fill="#D0DFF3" d="M88.392 260.781c0 .923-5.018 1.664-11.215 1.664s-11.215-.746-11.215-1.664c0-.917 5.018-1.664 11.215-1.664s11.215.747 11.215 1.664Z"/><path fill="#3FB790" d="M61.998 210.568c-.393 1.97 1.964 2.364 2.357 5.117.393 2.758-.786 3.541-.393 5.117s2.75 1.97 3.137 5.904c.393 3.935-1.178 3.541-.785 5.905.392 2.364 2.749 2.364 3.137 4.329.387 1.965.392 4.723 1.178 7.086.786 2.364 3.137 5.905 4.315 5.905 1.179 0 4.316-6.693 3.53-8.657-.785-1.965-1.964-2.364-1.964-3.935 0-1.571 1.572-5.511 1.179-8.269s-3.923-3.934-4.316-5.904c-.392-1.97.786-7.087-1.964-9.446-2.75-2.364-9.023-5.117-9.416-3.147l.005-.005Z"/><path fill="#34916F" d="M74.763 249.252a.196.196 0 0 1-.196-.197c0-.052-.036-5.168-1.53-6.667-1.514-1.518-2.383-6.174-2.806-15.085-.383-8.098-6.171-14.77-6.228-14.837a.203.203 0 0 1 .016-.28.201.201 0 0 1 .278.015c.057.068 5.939 6.838 6.326 15.081.414 8.688 1.267 13.401 2.688 14.826 1.607 1.613 1.643 6.724 1.643 6.942a.197.197 0 0 1-.196.197l.005.005Z"/><path fill="#4FC7A0" d="M97.917 216.525c1.385 1.389-3.137 1.97-3.53 4.723-.393 2.753-.393 3.935-1.964 5.511s-3.922 1.97-3.53 4.328c.393 2.364 1.179 4.723 0 5.905-1.178 1.182-3.922 1.182-4.708 3.147-.785 1.965-.393 4.329-1.964 6.299-1.571 1.97-3.923 5.904-5.886 5.116-1.964-.788-.786-9.839 0-11.415.785-1.576 1.57-2.758 1.57-3.935s-.392-3.147.393-5.117c.786-1.97 5.102-2.758 5.494-3.934.393-1.177.786-7.481 3.137-9.052 2.357-1.576 8.631-3.935 10.988-1.576Z"/><path fill="#3FB690" d="M76.944 250.88a.263.263 0 0 1-.103-.026.196.196 0 0 1-.067-.27c.015-.026 1.586-2.665 1.917-3.997.088-.342.191-.866.31-1.467.434-2.188 1.09-5.485 2.098-6.501 1.463-1.467 3.804-5.967 5.443-11.721 2.02-7.092 8.698-9.166 8.765-9.186a.192.192 0 0 1 .243.134.195.195 0 0 1-.13.244c-.067.021-6.542 2.037-8.501 8.917-1.66 5.822-4.042 10.389-5.546 11.892-.925.928-1.592 4.287-1.99 6.299-.118.606-.222 1.13-.31 1.482-.346 1.39-1.896 3.992-1.963 4.101a.195.195 0 0 1-.171.093l.005.006Z"/><path fill="#90DAD8" d="M76.444 221.03c-4.709.393-3.138 14.562-3.138 14.562 1.179 12.203 2.75 17.714 3.923 18.108 1.173.394 3.53-17.32 3.53-21.649 0 0 .393-11.415-4.316-11.021Z"/><path fill="#fff" d="M77.033 251.735h-.026a.193.193 0 0 1-.17-.217c1.55-12.821-.373-28.923-.394-29.083a.19.19 0 0 1 .17-.218.193.193 0 0 1 .218.171c.02.161 1.948 16.309.393 29.176a.196.196 0 0 1-.197.171h.006Z"/><path fill="#D0DAED" d="M82.878 260.694H70.939c-.398 0-.734-.243-.78-.565l-1.737-12.421a.928.928 0 0 1 .915-1.058h15.138a.93.93 0 0 1 .92 1.058l-1.737 12.421c-.047.322-.383.565-.78.565Z"/><path fill="#3FB790" d="M198.811 258.32h4.811v-46.304h2.347v18.289h3.638v-18.289h2.346v20.643h-5.984v25.666h4.811a1.177 1.177 0 0 1 0 2.354h-11.964a1.177 1.177 0 0 1 0-2.354l-.005-.005Z"/><path fill="#50C6A1" d="M207.489 201.969c10.217 0 18.502 1.933 18.502 4.313v2.333c0 2.384-8.285 4.313-18.502 4.313-10.218 0-18.503-1.934-18.503-4.313v-2.333c0-2.385 8.285-4.313 18.503-4.313Z"/><path fill="#fff" d="M183.733 144.814c3.146-5.971.87-13.37-5.084-16.526-5.953-3.155-13.329-.871-16.475 5.1-3.146 5.972-.869 13.371 5.084 16.526 5.954 3.155 13.33.872 16.475-5.1Z" opacity=".1"/><path fill="#50C6A1" d="M180.619 135.343a1.04 1.04 0 0 1-.987-.726 5.41 5.41 0 0 0-2.667-3.204 5.368 5.368 0 0 0-4.145-.373 1.037 1.037 0 0 1-.62-1.981 7.432 7.432 0 0 1 5.721.519 7.447 7.447 0 0 1 3.68 4.427c.17.544-.134 1.13-.677 1.301a1.075 1.075 0 0 1-.31.047l.005-.01Z" opacity=".17"/><path fill="#D0DAED" d="M168.597 125.113c-7.695 2.411-11.985 10.622-9.582 18.341 2.403 7.72 10.59 12.022 18.285 9.612 7.696-2.411 11.985-10.622 9.582-18.342-2.403-7.719-10.589-12.022-18.285-9.611Zm7.99 25.651c-6.429 2.012-13.267-1.581-15.272-8.025-2.005-6.449 1.576-13.308 8-15.319 6.43-2.011 13.267 1.581 15.273 8.025 2.005 6.449-1.577 13.308-8.001 15.319Z"/><path fill="#D0DAED" d="m178.377 152.214-2.422.759 3.449 11.074 2.422-.759-3.449-11.074Z"/><path fill="url(#c)" d="M186.805 183.57a2.936 2.936 0 0 1-3.68-1.934l-5.302-17.03a1.566 1.566 0 0 1 1.023-1.96l2.631-.824a1.557 1.557 0 0 1 1.953 1.027l5.303 17.029a2.948 2.948 0 0 1-1.928 3.692Z"/><path fill="#FFAA9D" d="M187.828 176.089s-5.463-3.38-7.111-5.127c-1.649-1.747-2.347-2.54-1.923-2.914.424-.373 5.039 1.664 5.484 1.322.444-.342.056-1.197.558-1.581.501-.384 3.478 2.691 4.181 2.457.708-.233-.367 5.298-1.189 5.843ZM166.039 239.019l-4.006 3.888-10.15-9.419 3.338-5.449 10.818 10.98Z"/><path fill="url(#d)" d="M162.623 242.338s-2.796 3.509-3.318 3.52c-.522.01-12.243-12.712-12.166-13.121.078-.41 5.194.031 5.194.031l10.295 9.57h-.005Z"/><path fill="url(#e)" d="M154.602 227.469s11.731 12.302 12.186 12.302c.455 0 56.447-43.127 56.447-43.127l-23.737-10.56s-30.141 8.31-44.896 41.385Z"/><path fill="#FFAA9D" d="m207.757 231.154 1.985 5.226-12.632 5.651-3.679-5.226 14.326-5.651Z"/><path fill="url(#f)" d="M197.653 186.084s-19.82 4.147-21.536 10.876c-1.716 6.729-.155 14.086 5.308 22.696 5.463 8.611 11.018 17.974 12.161 18.28 0 0 14.672-5.895 15.008-6.631.331-.736-8.217-20.995-8.217-20.995s17.422-1.162 21.484-11.468l-24.208-12.758Z"/><path fill="url(#g)" d="M196.268 186.027c-.181 1.172 21.469 14.77 25.298 14.116 3.83-.658 8.786-16.521 7.417-28.367-1.37-11.846-11.949-20.731-16.771-20.317-4.822.415-7.406 4.951-8.063 12.162-.961 10.581-7.679 21.094-7.881 22.401v.005Z"/><path fill="url(#h)" d="M214.372 153.278c2.553-.223 11.334 4.941 13.386 20.182 2.051 15.236-6.337 16.517-13.386 15.532-7.049-.985-24.787-9.715-27.386-12.836 0 0-.559-4.909 1.323-6.646 0 0 17.112 1.747 21.551 3.084 4.44 1.338-5.168-18.465 4.507-19.31l.005-.006Z"/><path fill="url(#i)" d="M209.447 235.613s2.119 3.961 1.918 4.448c-.202.488-16.471 6.283-16.812 6.055-.342-.228 2.072-4.774 2.072-4.774l12.827-5.724-.005-.005Z"/><path fill="#FFAA9D" d="m200.041 143.382-.083 5.448.811-.025s.652 4.505 3.825 3.794c.91-.202 2.072-.979 2.408-.824.398.181.569 1.415.662 1.773.346 1.363 5.106-.016 4.336-1.41-.734-1.327-1.824-3.142-1.592-3.644.806-1.758 1.034-6.118-3.339-7.575-3.483-1.161-6.982.597-7.023 2.463h-.005Z"/><path fill="#FF9F91" d="M211.995 152.138c-.734-1.327-1.825-3.141-1.592-3.644 0 0-1.84 2.836-3.535 3.266h-.01c.056 0 .103 0 .139.016.398.181.569 1.415.662 1.773.346 1.363 5.106-.016 4.336-1.411Z"/><path fill="#14336A" d="M207.38 146.052c2.046-.352.775 4.22 3.028 4.07 2.254-.151 3.825-5.091 2.171-8.902-1.654-3.81-4.796-3.597-7.794-3.079-2.997.518-6.672 1.877-6.667 4.153.005 5.469 6.46.881 6.884 2.524.331 1.27.837 4.951-.475 5.034-1.313.083-2.652-1.001-3.69-.726-.6.161-2.243 7.336 2.057 7.574 4.253.239 5.333-3.53 4.434-6.604-.853-2.924-.941-3.873.057-4.044h-.005Z"/><path stroke="#D11B15" stroke-linecap="round" stroke-linejoin="round" stroke-width="6.225" d="M136.5 154.666v13.833m0 13.834h.035"/><defs><linearGradient id="a" x1="141.485" x2="141.485" y1="255.639" y2="-28.197" gradientUnits="userSpaceOnUse"><stop stop-color="#FEFEFD"/><stop offset="1" stop-color="#EBF3FF"/></linearGradient><linearGradient id="b" x1="141.097" x2="141.097" y1="244.643" y2="163.486" gradientUnits="userSpaceOnUse"><stop stop-color="#FEFEFD"/><stop offset=".84" stop-color="#EBF3FF"/></linearGradient><linearGradient id="c" x1="179.735" x2="183.007" y1="160.855" y2="171.295" gradientUnits="userSpaceOnUse"><stop stop-color="#90DAD8"/><stop offset="1" stop-color="#3FB790"/></linearGradient><linearGradient id="d" x1="155.947" x2="153.419" y1="236.119" y2="239.258" gradientUnits="userSpaceOnUse"><stop stop-color="#14336D"/><stop offset=".97" stop-color="#0E2253"/></linearGradient><linearGradient id="e" x1="166.928" x2="184.553" y1="224.358" y2="210.202" gradientUnits="userSpaceOnUse"><stop stop-color="#14336D"/><stop offset=".97" stop-color="#0E2253"/></linearGradient><linearGradient id="f" x1="192.123" x2="222.999" y1="210.745" y2="221.908" gradientUnits="userSpaceOnUse"><stop stop-color="#14336D"/><stop offset=".97" stop-color="#0E2253"/></linearGradient><linearGradient id="g" x1="202.878" x2="218.473" y1="158.873" y2="187.988" gradientUnits="userSpaceOnUse"><stop stop-color="#3162DF"/><stop offset=".96" stop-color="#173DB8"/></linearGradient><linearGradient id="h" x1="207.478" x2="225.211" y1="172.973" y2="210.236" gradientUnits="userSpaceOnUse"><stop stop-color="#3162DF"/><stop offset=".96" stop-color="#173DB8"/></linearGradient><linearGradient id="i" x1="201.158" x2="203.058" y1="239.289" y2="242.845" gradientUnits="userSpaceOnUse"><stop stop-color="#14336D"/><stop offset=".97" stop-color="#0E2253"/></linearGradient></defs></svg>