<svg width="18" height="14" viewBox="0 0 18 14" fill="none" xmlns="http://www.w3.org/2000/svg">
<g clip-path="url(#clip0_8444_2235)">
<path fill-rule="evenodd" clip-rule="evenodd" d="M1 1V13H17V1H1Z" fill="#2E42A5"/>
<mask id="mask0_8444_2235" style="mask-type:luminance" maskUnits="userSpaceOnUse" x="1" y="1" width="16" height="12">
<path fill-rule="evenodd" clip-rule="evenodd" d="M1 1V13H17V1H1Z" fill="white"/>
</mask>
<g mask="url(#mask0_8444_2235)">
<path d="M-0.78157 12.1426L2.73927 13.6316L17.0799 2.61878L18.9371 0.406041L15.172 -0.0916367L9.32283 4.6541L4.61482 7.85161L-0.78157 12.1426Z" fill="white"/>
<path d="M-0.299561 13.1859L1.49415 14.05L18.2702 0.200579H15.7516L-0.299561 13.1859Z" fill="#F50100"/>
<path d="M18.7816 12.1426L15.2607 13.6316L0.920107 2.61878L-0.937057 0.406041L2.82798 -0.0916367L8.67717 4.6541L13.3852 7.85161L18.7816 12.1426Z" fill="white"/>
<path d="M18.6614 12.8913L16.8677 13.7554L9.72433 7.82569L7.60646 7.16318L-1.11576 0.413586H1.40282L10.1201 7.00298L12.4356 7.7974L18.6614 12.8913Z" fill="#F50100"/>
<mask id="path-9-inside-1_8444_2235" fill="white">
<path fill-rule="evenodd" clip-rule="evenodd" d="M10.8889 0H7.11112V5H0.0137787V9H7.11112V14H10.8889V9H18.0138V5H10.8889V0Z"/>
</mask>
<path fill-rule="evenodd" clip-rule="evenodd" d="M10.8889 0H7.11112V5H0.0137787V9H7.11112V14H10.8889V9H18.0138V5H10.8889V0Z" fill="#F50100"/>
<path d="M7.11112 0V-1H6.11112V0H7.11112ZM10.8889 0H11.8889V-1H10.8889V0ZM7.11112 5V6H8.11112V5H7.11112ZM0.0137787 5V4H-0.986221V5H0.0137787ZM0.0137787 9H-0.986221V10H0.0137787V9ZM7.11112 9H8.11112V8H7.11112V9ZM7.11112 14H6.11112V15H7.11112V14ZM10.8889 14V15H11.8889V14H10.8889ZM10.8889 9V8H9.8889V9H10.8889ZM18.0138 9V10H19.0138V9H18.0138ZM18.0138 5H19.0138V4H18.0138V5ZM10.8889 5H9.8889V6H10.8889V5ZM7.11112 1H10.8889V-1H7.11112V1ZM8.11112 5V0H6.11112V5H8.11112ZM0.0137787 6H7.11112V4H0.0137787V6ZM1.01378 9V5H-0.986221V9H1.01378ZM7.11112 8H0.0137787V10H7.11112V8ZM8.11112 14V9H6.11112V14H8.11112ZM10.8889 13H7.11112V15H10.8889V13ZM9.8889 9V14H11.8889V9H9.8889ZM18.0138 8H10.8889V10H18.0138V8ZM17.0138 5V9H19.0138V5H17.0138ZM10.8889 6H18.0138V4H10.8889V6ZM9.8889 0V5H11.8889V0H9.8889Z" fill="white" mask="url(#path-9-inside-1_8444_2235)"/>
</g>
</g>
<rect x="0.5" y="0.5" width="17" height="13" stroke="black" stroke-opacity="0.1"/>
<defs>
<clipPath id="clip0_8444_2235">
<rect x="1" y="1" width="16" height="12" fill="white"/>
</clipPath>
</defs>
</svg>
