<svg xmlns="http://www.w3.org/2000/svg" width="24" height="24" fill="none"><g clip-path="url(#a)"><path fill="none" d="M22.228 0H1.772A1.772 1.772 0 0 0 0 1.772v20.456A1.772 1.772 0 0 0 1.772 24h20.456A1.772 1.772 0 0 0 24 22.228V1.772A1.772 1.772 0 0 0 22.228 0ZM7.153 20.445H3.545V8.983h3.608v11.462ZM5.347 7.395a2.072 2.072 0 1 1 2.083-2.07 2.042 2.042 0 0 1-2.083 2.07Zm15.106 13.06h-3.606v-6.262c0-1.846-.785-2.416-1.799-2.416-1.07 0-2.12.806-2.12 2.463v6.215H9.32V8.992h3.47v1.588h.047c.348-.705 1.568-1.91 3.43-1.91 2.013 0 4.188 1.195 4.188 4.695l-.002 7.09Z"/></g><defs><clipPath id="a"><path fill="#fff" d="M0 0h24v24H0z"/></clipPath></defs><path d="M3.61 14.695V9h3.458v11.39H3.61Z" style="fill:#f9f9f9;stroke-width:0;stroke-linecap:round;stroke-miterlimit:23.8;stroke-opacity:.0865922"/><path d="M3.61 14.695V9h3.458v11.39H3.61Z" style="fill:#f9f9f9;stroke-width:0;stroke-linecap:round;stroke-miterlimit:23.8;stroke-opacity:.0865922"/><path d="M3.61 14.695V9h3.458v11.39H3.61ZM4.73 7.244c-.536-.178-1.165-.863-1.305-1.419-.196-.778.016-1.447.629-1.986.465-.408.992-.574 1.574-.494.965.132 1.626.853 1.713 1.87.04.481.007.66-.196 1.04-.44.82-1.553 1.276-2.415.99Z" style="fill:#f9f9f9;stroke-width:0;stroke-linecap:round;stroke-miterlimit:23.8;stroke-opacity:.0865922"/><path d="M4.208 6.877c-.574-.505-.801-.958-.801-1.595 0-1.04.903-1.907 1.978-1.897 1.188.01 1.941.865 1.919 2.176-.009.5-.304.98-.83 1.35-.352.247-.558.31-1.114.342-.674.038-.687.033-1.152-.376Z" style="fill:#f9f9f9;stroke-width:0;stroke-linecap:round;stroke-miterlimit:23.8;stroke-opacity:.0865922"/><path d="M4.197 6.867c-.253-.222-.534-.56-.625-.753-.365-.77-.111-1.804.57-2.324.383-.291 1.025-.5 1.343-.438.116.023.337.069.492.102.4.085 1.058.713 1.201 1.149.067.202.125.609.13.903.006.45-.041.594-.302.917a2.217 2.217 0 0 1-1.77.848c-.531 0-.619-.034-1.04-.404zM9.407 14.695V9h3.356v1.668l.5-.561a4.043 4.043 0 0 1 3.682-1.322c1.781.294 3.006 1.51 3.335 3.31.066.364.11 2.126.11 4.45v3.845h-3.441l-.034-3.585-.034-3.585-.254-.503c-.34-.674-.671-.897-1.408-.95-1.086-.079-1.886.488-2.21 1.567-.112.37-.145 1.224-.145 3.767v3.289H9.406Z" style="fill:#f9f9f9;stroke-width:0;stroke-linecap:round;stroke-miterlimit:23.8;stroke-opacity:.0865922"/><path d="M9.407 14.695V9h3.356v1.672l.635-.628c.395-.39.867-.734 1.246-.908.706-.324.704-.324 1.576-.347 1.215-.033 2.222.39 3.028 1.273 1.003 1.097 1.129 1.906 1.137 7.302l.005 3.026h-3.458l-.01-3.28c-.006-1.804-.004-3.417.004-3.585.02-.427-.567-1.357-1.01-1.598-.271-.147-.509-.185-.99-.157-.82.047-1.393.421-1.756 1.147-.255.507-.255.507-.286 3.99l-.032 3.483H9.407z" style="fill:#f9f9f9;stroke-width:0;stroke-linecap:round;stroke-miterlimit:23.8;stroke-opacity:.0865922"/><path d="M9.407 14.695V9h3.356v1.66l.627-.627c.902-.903 1.633-1.227 2.799-1.241 1.33-.017 2.22.353 3.06 1.27 1.005 1.1 1.13 1.87 1.136 7.048l.005 3.28h-3.458l-.005-3.229c-.007-3.974-.005-3.94-.322-4.5-.382-.676-.88-.937-1.684-.88-.824.056-1.295.36-1.702 1.094l-.304.549-.032 3.483-.033 3.483H9.407Z" style="fill:#f9f9f9;stroke-width:0;stroke-linecap:round;stroke-miterlimit:23.8;stroke-opacity:.0865922"/><path d="M9.407 14.695V9h3.356v1.64l.62-.616c.883-.878 1.628-1.214 2.74-1.235 1.443-.027 2.231.295 3.127 1.275 1.007 1.102 1.133 1.872 1.137 6.944l.003 3.382h-3.458l-.006-3.178c-.007-3.575-.03-3.924-.301-4.454-.712-1.395-2.607-1.326-3.41.124l-.3.542-.032 3.483-.033 3.483H9.407Z" style="fill:#f9f9f9;stroke-width:0;stroke-linecap:round;stroke-miterlimit:23.8;stroke-opacity:.0865922"/></svg>