<svg width="22" height="22" viewBox="0 0 22 22" fill="none" xmlns="http://www.w3.org/2000/svg">
<path d="M11 13.5H6.5C5.10444 13.5 4.40665 13.5 3.83886 13.6722C2.56045 14.06 1.56004 15.0605 1.17224 16.3389C1 16.9067 1 17.6044 1 19M13.5 5.5C13.5 7.98528 11.4853 10 9 10C6.51472 10 4.5 7.98528 4.5 5.5C4.5 3.01472 6.51472 1 9 1C11.4853 1 13.5 3.01472 13.5 5.5ZM20.0872 13.8699C21.3119 12.6452 21.3119 10.6597 20.0872 9.43499C18.8625 8.21034 16.877 8.21034 15.6523 9.435C14.4277 10.6597 14.4277 12.6452 15.6523 13.8699C15.7535 13.971 15.8598 14.0638 15.9705 14.1482C16.1525 14.2871 16.2435 14.3566 16.287 14.4146C16.3323 14.475 16.3512 14.5131 16.3717 14.5858C16.3915 14.6556 16.3915 14.7438 16.3915 14.9201L16.3915 18.6975C16.3915 18.8253 16.3915 18.8893 16.4059 18.9494C16.4187 19.0027 16.4398 19.0537 16.4685 19.1005C16.5008 19.1532 16.546 19.1984 16.6364 19.2888L17.2784 19.9309C17.4854 20.1379 17.5889 20.2413 17.7082 20.2801C17.8132 20.3142 17.9263 20.3142 18.0313 20.2801C18.1506 20.2413 18.2541 20.1379 18.4611 19.9309L18.9785 19.4135C19.1826 19.2094 19.1826 18.8784 18.9785 18.6743V18.6743C18.7744 18.4702 18.7744 18.1393 18.9785 17.9352V17.9352C19.1826 17.7311 19.1826 17.4001 18.9785 17.196V17.196C18.7744 16.9919 18.7744 16.661 18.9785 16.4569L19.1316 16.3038C19.2702 16.1652 19.348 15.9772 19.348 15.7811V14.9201C19.348 14.7438 19.348 14.6556 19.3678 14.5858C19.3883 14.5131 19.4072 14.475 19.4525 14.4146C19.496 14.3566 19.587 14.2871 19.769 14.1482C19.8797 14.0638 19.986 13.971 20.0872 13.8699Z" stroke="#606071" stroke-width="1.5" stroke-linecap="round" stroke-linejoin="round"/>
</svg>
