<svg width="22" height="21" viewBox="0 0 22 21" fill="none" xmlns="http://www.w3.org/2000/svg">
<path d="M8.40649 9.78986C11.117 9.78986 13.3142 7.59832 13.3142 4.89493C13.3142 2.19153 11.117 0 8.40649 0C5.69601 0 3.49874 2.19153 3.49874 4.89493C3.49874 7.59832 5.69601 9.78986 8.40649 9.78986Z" fill="#414552"/>
<path d="M20.4983 9.17526C21.8339 10.5074 21.8339 12.6672 20.4983 13.9994C20.388 14.1094 20.272 14.2103 20.1513 14.3022C19.9528 14.4532 19.8535 14.5288 19.8061 14.5919C19.7567 14.6576 19.7361 14.6991 19.7137 14.7781C19.6922 14.854 19.6922 14.9499 19.6922 15.1418V16.0781C19.6922 16.2915 19.6073 16.4961 19.4562 16.6468L19.2891 16.8134C19.0667 17.0353 19.0667 17.3956 19.2891 17.6174C19.5115 17.8393 19.5115 18.1996 19.2891 18.4214C19.0667 18.6433 19.0667 19.0036 19.2891 19.2255C19.5115 19.4473 19.5115 19.8076 19.2891 20.0295L18.7248 20.5923C18.4991 20.8174 18.3862 20.93 18.2561 20.9722C18.1416 21.0093 18.0183 21.0093 17.9038 20.9722C17.7736 20.93 17.6608 20.8174 17.435 20.5923L16.7348 19.8939C16.6362 19.7956 16.5869 19.7464 16.5517 19.689C16.5204 19.6382 16.4974 19.5827 16.4834 19.5247C16.4677 19.4593 16.4677 19.3897 16.4677 19.2507L16.4677 15.1418C16.4677 14.9499 16.4677 14.854 16.4462 14.7781C16.4237 14.6991 16.4032 14.6576 16.3537 14.5919C16.3063 14.5288 16.207 14.4532 16.0085 14.3022C15.8878 14.2103 15.7719 14.1094 15.6616 13.9994C14.3259 12.6672 14.3259 10.5074 15.6616 9.17526C16.9972 7.84313 19.1627 7.84313 20.4983 9.17526Z" fill="#414552"/>
<path d="M11.9278 12.3873C11.8891 12.0494 11.8697 11.8805 11.8063 11.7776C11.746 11.6798 11.6768 11.6183 11.5725 11.5696C11.4628 11.5185 11.311 11.5185 11.0074 11.5185H6.75872C5.17053 11.5185 4.37643 11.5185 3.73027 11.791C2.27541 12.4046 1.13691 13.9875 0.695581 16.0102C0.527214 16.7818 0.503467 17.7052 0.500118 19.3497C0.499497 19.6542 0.499187 19.8064 0.558536 19.923C0.61067 20.0254 0.694324 20.109 0.796898 20.1612C0.913665 20.2206 1.06646 20.2206 1.37206 20.2206H12.7144C13.0198 20.2206 13.1725 20.2206 13.2891 20.1613C13.3917 20.1092 13.4752 20.026 13.5274 19.9237C13.5869 19.8073 13.5869 19.655 13.5869 19.3504V16.0292C13.5869 15.8399 13.5869 15.7452 13.5706 15.6802C13.5505 15.6 13.545 15.5874 13.5001 15.5179C13.4638 15.4615 13.3543 15.359 13.1352 15.1539C12.6533 14.7026 12.0929 13.8243 11.9278 12.3873Z" fill="#414552"/>
</svg>
