<svg width="32" height="32" viewBox="0 0 32 32" fill="none" xmlns="http://www.w3.org/2000/svg">
<path opacity="0.12" d="M16.0001 29.3332C23.3639 29.3332 29.3334 23.3636 29.3334 15.9998C29.3334 8.63604 23.3639 2.6665 16.0001 2.6665C8.63628 2.6665 2.66675 8.63604 2.66675 15.9998C2.66675 23.3636 8.63628 29.3332 16.0001 29.3332Z" fill="#FD827E"/>
<path d="M29.3334 14.7808V16.0075C29.3318 18.8827 28.4008 21.6804 26.6792 23.9832C24.9576 26.2861 22.5378 27.9708 19.7806 28.786C17.0233 29.6012 14.0764 29.5033 11.3794 28.5069C8.68232 27.5105 6.37962 25.6689 4.8147 23.2569C3.24977 20.8448 2.50647 17.9916 2.69565 15.1226C2.88483 12.2536 3.99636 9.52257 5.86445 7.3369C7.73255 5.15123 10.2571 3.62798 13.0617 2.99433C15.8662 2.36068 18.8004 2.65058 21.4268 3.8208M29.3334 5.33317L16.0001 18.6798L12.0001 14.6798" stroke="#FD827E" stroke-width="2.5" stroke-linecap="round" stroke-linejoin="round"/>
</svg>
