<svg width="32" height="32" viewBox="0 0 32 32" fill="none" xmlns="http://www.w3.org/2000/svg">
<path opacity="0.12" d="M16.0001 29.3332C23.3639 29.3332 29.3334 23.3636 29.3334 15.9998C29.3334 8.63604 23.3639 2.6665 16.0001 2.6665C8.63628 2.6665 2.66675 8.63604 2.66675 15.9998C2.66675 23.3636 8.63628 29.3332 16.0001 29.3332Z" fill="#FD827E"/>
<path d="M10.0001 15.9998L14.0001 19.9998L22.0001 11.9998M29.3334 15.9998C29.3334 23.3636 23.3639 29.3332 16.0001 29.3332C8.63628 29.3332 2.66675 23.3636 2.66675 15.9998C2.66675 8.63604 8.63628 2.6665 16.0001 2.6665C23.3639 2.6665 29.3334 8.63604 29.3334 15.9998Z" stroke="#FD827E" stroke-width="2.5" stroke-linecap="round" stroke-linejoin="round"/>
</svg>
