<svg width="32" height="32" viewBox="0 0 32 32" fill="none" xmlns="http://www.w3.org/2000/svg">
<path opacity="0.12" d="M15.8614 29.3327C23.2248 29.4093 29.2561 23.5022 29.3327 16.1388C29.4093 8.77539 23.5022 2.74408 16.1388 2.66749C8.77537 2.5909 2.74406 8.49802 2.66747 15.8614C2.59088 23.2248 8.498 29.2561 15.8614 29.3327Z" fill="#FD827E"/>
<path d="M10.6667 15.9998L16.0001 21.3332M16.0001 21.3332L21.3334 15.9998M16.0001 21.3332V10.6665M29.3334 15.9998C29.3334 23.3636 23.3639 29.3332 16.0001 29.3332C8.63628 29.3332 2.66675 23.3636 2.66675 15.9998C2.66675 8.63604 8.63628 2.6665 16.0001 2.6665C23.3639 2.6665 29.3334 8.63604 29.3334 15.9998Z" stroke="#FD827E" stroke-width="2.5" stroke-linecap="round" stroke-linejoin="round"/>
</svg>
