<svg width="32" height="32" viewBox="0 0 32 32" fill="none" xmlns="http://www.w3.org/2000/svg">
<path opacity="0.12" d="M9.84094 13.1375C10.7689 15.0703 12.034 16.8818 13.6361 18.4839C15.2382 20.086 17.0497 21.3511 18.9825 22.2791C19.1488 22.3589 19.2319 22.3988 19.3371 22.4295C19.7109 22.5384 20.1699 22.4602 20.4865 22.2335C20.5756 22.1697 20.6518 22.0935 20.8042 21.9411C21.2703 21.4749 21.5034 21.2419 21.7378 21.0895C22.6216 20.5148 23.7611 20.5148 24.6449 21.0895C24.8793 21.2419 25.1124 21.4749 25.5785 21.9411L25.8383 22.2009C26.5469 22.9095 26.9012 23.2638 27.0937 23.6443C27.4765 24.401 27.4765 25.2947 27.0937 26.0515C26.9012 26.432 26.5469 26.7863 25.8383 27.4949L25.6282 27.7051C24.922 28.4112 24.5689 28.7643 24.0889 29.034C23.5562 29.3332 22.7289 29.5483 22.1179 29.5465C21.5673 29.5449 21.191 29.4381 20.4384 29.2245C16.3939 28.0765 12.5774 25.9105 9.39345 22.7266C6.20948 19.5426 4.04351 15.7261 2.89555 11.6816C2.68194 10.929 2.57514 10.5527 2.5735 10.0021C2.57168 9.39114 2.78683 8.56381 3.08606 8.03114C3.35572 7.5511 3.7088 7.19802 4.41497 6.49185L4.62515 6.28167C5.33374 5.57308 5.68803 5.21879 6.06854 5.02633C6.82529 4.64357 7.71897 4.64357 8.47572 5.02633C8.85623 5.21879 9.21052 5.57308 9.91911 6.28167L10.1789 6.5415C10.6451 7.00764 10.8782 7.24071 11.0305 7.47508C11.6052 8.35893 11.6052 9.49838 11.0305 10.3822C10.8782 10.6166 10.6451 10.8497 10.1789 11.3158C10.0265 11.4682 9.95032 11.5444 9.88653 11.6335C9.65985 11.9501 9.58158 12.4091 9.69054 12.7829C9.7212 12.8881 9.76112 12.9712 9.84094 13.1375Z" fill="#FD827E"/>
<path d="M18.7335 7.99984C20.0358 8.25392 21.2326 8.89085 22.1709 9.82908C23.1091 10.7673 23.746 11.9642 24.0001 13.2665M18.7335 2.6665C21.4392 2.96709 23.9622 4.17874 25.8884 6.10251C27.8146 8.02629 29.0295 10.5479 29.3335 13.2532M13.6361 18.4839C12.034 16.8818 10.7689 15.0703 9.84094 13.1375C9.76112 12.9712 9.72121 12.8881 9.69054 12.7829C9.58158 12.4091 9.65985 11.9501 9.88653 11.6335C9.95032 11.5444 10.0265 11.4682 10.1789 11.3158C10.6451 10.8497 10.8782 10.6166 11.0305 10.3822C11.6052 9.49837 11.6052 8.35893 11.0305 7.47508C10.8782 7.24071 10.6451 7.00764 10.1789 6.5415L9.91911 6.28167C9.21052 5.57308 8.85623 5.21879 8.47572 5.02633C7.71897 4.64357 6.82529 4.64357 6.06854 5.02633C5.68803 5.21879 5.33374 5.57308 4.62515 6.28167L4.41497 6.49185C3.7088 7.19801 3.35572 7.5511 3.08606 8.03114C2.78683 8.56381 2.57168 9.39114 2.5735 10.0021C2.57514 10.5527 2.68194 10.929 2.89555 11.6816C4.04351 15.7261 6.20948 19.5426 9.39345 22.7266C12.5774 25.9105 16.3939 28.0765 20.4384 29.2245C21.191 29.4381 21.5673 29.5449 22.1179 29.5465C22.7289 29.5483 23.5562 29.3332 24.0889 29.034C24.5689 28.7643 24.922 28.4112 25.6282 27.7051L25.8383 27.4949C26.5469 26.7863 26.9012 26.432 27.0937 26.0515C27.4765 25.2947 27.4765 24.401 27.0937 23.6443C26.9012 23.2638 26.5469 22.9095 25.8383 22.2009L25.5785 21.9411C25.1124 21.4749 24.8793 21.2419 24.6449 21.0895C23.7611 20.5148 22.6216 20.5148 21.7378 21.0895C21.5034 21.2419 21.2704 21.4749 20.8042 21.9411C20.6518 22.0935 20.5756 22.1697 20.4865 22.2335C20.1699 22.4602 19.7109 22.5384 19.3371 22.4295C19.2319 22.3988 19.1488 22.3589 18.9825 22.2791C17.0497 21.3511 15.2382 20.086 13.6361 18.4839Z" stroke="#FD827E" stroke-width="2.5" stroke-linecap="round" stroke-linejoin="round"/>
</svg>
