<svg width="40" height="40" viewBox="0 0 40 40" fill="none" xmlns="http://www.w3.org/2000/svg">
<path fill-rule="evenodd" clip-rule="evenodd" d="M3 16.3636C3 7.32625 10.6112 0 20 0C29.3888 0 37 7.32625 37 16.3636C37 22.0347 33.706 26.1191 30.3348 29.499C29.5213 30.3145 28.6823 31.1088 27.8712 31.8765L27.7659 31.9762C26.9148 32.782 26.0962 33.5592 25.3251 34.3414C23.7749 35.9139 22.5092 37.4168 21.6895 38.9949C21.3695 39.6109 20.7155 40 20 40C19.2845 40 18.6305 39.6109 18.3105 38.9949C17.4908 37.4168 16.2251 35.9139 14.6749 34.3414C13.9038 33.5592 13.0852 32.782 12.2341 31.9762L12.1286 31.8764C11.3176 31.1086 10.4787 30.3145 9.66523 29.499C6.29397 26.1191 3 22.0347 3 16.3636Z" fill="#C41475"/>
<path d="M17.75 21.5V12.7665C17.75 12.4054 17.75 12.2248 17.8157 12.0783C17.8736 11.9492 17.9669 11.8392 18.0847 11.7608C18.2184 11.6719 18.3965 11.6422 18.7527 11.5829L25.3527 10.4829C25.8334 10.4027 26.0738 10.3627 26.2611 10.4322C26.4255 10.4933 26.5633 10.61 26.6506 10.7621C26.75 10.9355 26.75 11.1792 26.75 11.6665V20M17.75 21.5C17.75 22.7426 16.7426 23.75 15.5 23.75C14.2574 23.75 13.25 22.7426 13.25 21.5C13.25 20.2573 14.2574 19.25 15.5 19.25C16.7426 19.25 17.75 20.2573 17.75 21.5ZM26.75 20C26.75 21.2426 25.7426 22.25 24.5 22.25C23.2574 22.25 22.25 21.2426 22.25 20C22.25 18.7573 23.2574 17.75 24.5 17.75C25.7426 17.75 26.75 18.7573 26.75 20Z" stroke="#F9F9FF" stroke-width="1.5" stroke-linecap="round" stroke-linejoin="round"/>
</svg>
