<svg width="40" height="40" viewBox="0 0 40 40" fill="none" xmlns="http://www.w3.org/2000/svg">
<path d="M20 0.75C29.0017 0.75 36.2498 7.76698 36.25 16.3633C36.25 21.3813 33.5267 25.1196 30.4277 28.333L29.8037 28.9697C29.4015 29.373 28.9928 29.7714 28.583 30.165L27.3555 31.332L27.25 31.4316C26.6127 32.035 25.9879 32.6277 25.3857 33.2207L24.791 33.8145C23.3217 35.305 22.0623 36.7752 21.1924 38.3359L21.0234 38.6494C20.8374 39.0073 20.4462 39.25 20 39.25C19.6097 39.25 19.2614 39.0644 19.0557 38.7783L18.9766 38.6494C18.2138 37.181 17.1012 35.798 15.7852 34.4102L15.209 33.8145C14.8183 33.4181 14.4157 33.024 14.0049 32.6279L12.75 31.4316L12.6445 31.332C12.0352 30.7552 11.4151 30.168 10.8037 29.5703L10.1963 28.9697C6.84831 25.6132 3.75 21.7159 3.75 16.3633C3.7502 7.76698 10.9983 0.75 20 0.75Z" fill="#FAE6F1" stroke="#AF1268" stroke-width="1.5" stroke-linecap="round" stroke-linejoin="round"/>
<path d="M17.75 21.5V12.7665C17.75 12.4054 17.75 12.2248 17.8157 12.0783C17.8736 11.9492 17.9669 11.8392 18.0847 11.7608C18.2184 11.6719 18.3965 11.6422 18.7527 11.5829L25.3527 10.4829C25.8334 10.4027 26.0738 10.3627 26.2611 10.4322C26.4255 10.4933 26.5633 10.61 26.6506 10.7621C26.75 10.9355 26.75 11.1792 26.75 11.6665V20M17.75 21.5C17.75 22.7426 16.7426 23.75 15.5 23.75C14.2574 23.75 13.25 22.7426 13.25 21.5C13.25 20.2573 14.2574 19.25 15.5 19.25C16.7426 19.25 17.75 20.2573 17.75 21.5ZM26.75 20C26.75 21.2426 25.7426 22.25 24.5 22.25C23.2574 22.25 22.25 21.2426 22.25 20C22.25 18.7573 23.2574 17.75 24.5 17.75C25.7426 17.75 26.75 18.7573 26.75 20Z" stroke="#AF1268" stroke-width="1.5" stroke-linecap="round" stroke-linejoin="round"/>
</svg>
