<svg width="40" height="40" viewBox="0 0 40 40" fill="none" xmlns="http://www.w3.org/2000/svg">
<path fill-rule="evenodd" clip-rule="evenodd" d="M3 16.3636C3 7.32625 10.6112 0 20 0C29.3888 0 37 7.32625 37 16.3636C37 22.0347 33.706 26.1191 30.3348 29.499C29.5213 30.3145 28.6823 31.1088 27.8712 31.8765L27.7659 31.9762C26.9148 32.782 26.0962 33.5592 25.3251 34.3414C23.7749 35.9139 22.5092 37.4168 21.6895 38.9949C21.3695 39.6109 20.7155 40 20 40C19.2845 40 18.6305 39.6109 18.3105 38.9949C17.4908 37.4168 16.2251 35.9139 14.6749 34.3414C13.9038 33.5592 13.0852 32.782 12.2341 31.9762L12.1286 31.8764C11.3176 31.1086 10.4787 30.3145 9.66523 29.499C6.29397 26.1191 3 22.0347 3 16.3636Z" fill="#8E4A00"/>
<g clip-path="url(#clip0_11638_7417)">
<path d="M15.875 17.75L16.4633 18.9267C16.6625 19.3249 16.762 19.524 16.895 19.6966C17.013 19.8497 17.1503 19.987 17.3034 20.105C17.476 20.238 17.6751 20.3375 18.0733 20.5367L19.25 21.125L18.0733 21.7133C17.6751 21.9125 17.476 22.012 17.3034 22.145C17.1503 22.263 17.013 22.4003 16.895 22.5534C16.762 22.726 16.6625 22.9251 16.4633 23.3233L15.875 24.5L15.2867 23.3233C15.0875 22.9251 14.988 22.726 14.855 22.5534C14.737 22.4003 14.5997 22.263 14.4466 22.145C14.274 22.012 14.0749 21.9125 13.6767 21.7133L12.5 21.125L13.6767 20.5367C14.0749 20.3375 14.274 20.238 14.4466 20.105C14.5997 19.987 14.737 19.8497 14.855 19.6966C14.988 19.524 15.0875 19.3249 15.2867 18.9267L15.875 17.75Z" stroke="#F9F9FF" stroke-width="1.5" stroke-linecap="round" stroke-linejoin="round"/>
<path d="M22.25 9.5L23.134 11.7983C23.3455 12.3482 23.4512 12.6232 23.6157 12.8545C23.7614 13.0595 23.9405 13.2386 24.1455 13.3843C24.3768 13.5488 24.6518 13.6545 25.2017 13.866L27.5 14.75L25.2017 15.634C24.6518 15.8455 24.3768 15.9512 24.1455 16.1157C23.9405 16.2614 23.7614 16.4405 23.6157 16.6455C23.4512 16.8768 23.3455 17.1518 23.134 17.7017L22.25 20L21.366 17.7017C21.1545 17.1518 21.0488 16.8768 20.8843 16.6455C20.7386 16.4405 20.5595 16.2614 20.3545 16.1157C20.1232 15.9512 19.8482 15.8455 19.2983 15.634L17 14.75L19.2983 13.866C19.8482 13.6545 20.1232 13.5488 20.3545 13.3843C20.5595 13.2386 20.7386 13.0595 20.8843 12.8545C21.0488 12.6232 21.1545 12.3482 21.366 11.7983L22.25 9.5Z" stroke="#F9F9FF" stroke-width="1.5" stroke-linecap="round" stroke-linejoin="round"/>
</g>
<defs>
<clipPath id="clip0_11638_7417">
<rect width="18" height="18" fill="white" transform="translate(11 8)"/>
</clipPath>
</defs>
</svg>
