<svg width="40" height="40" viewBox="0 0 40 40" fill="none" xmlns="http://www.w3.org/2000/svg">
<path d="M20 0.75C29.0017 0.75 36.2498 7.76698 36.25 16.3633C36.25 21.3813 33.5267 25.1196 30.4277 28.333L29.8037 28.9697C29.4015 29.373 28.9928 29.7714 28.583 30.165L27.3555 31.332L27.25 31.4316C26.6127 32.035 25.9879 32.6277 25.3857 33.2207L24.791 33.8145C23.3217 35.305 22.0623 36.7752 21.1924 38.3359L21.0234 38.6494C20.8374 39.0073 20.4462 39.25 20 39.25C19.6097 39.25 19.2614 39.0644 19.0557 38.7783L18.9766 38.6494C18.2138 37.181 17.1012 35.798 15.7852 34.4102L15.209 33.8145C14.8183 33.4181 14.4157 33.024 14.0049 32.6279L12.75 31.4316L12.6445 31.332C12.0352 30.7552 11.4151 30.168 10.8037 29.5703L10.1963 28.9697C6.84831 25.6132 3.75 21.7159 3.75 16.3633C3.7502 7.76698 10.9983 0.75 20 0.75Z" fill="#F5EEE6" stroke="#6F3900" stroke-width="1.5" stroke-linecap="round" stroke-linejoin="round"/>
<g clip-path="url(#clip0_11880_11761)">
<path d="M15.875 17.75L16.4633 18.9267C16.6625 19.3249 16.762 19.524 16.895 19.6966C17.013 19.8497 17.1503 19.987 17.3034 20.105C17.476 20.238 17.6751 20.3375 18.0733 20.5367L19.25 21.125L18.0733 21.7133C17.6751 21.9125 17.476 22.012 17.3034 22.145C17.1503 22.263 17.013 22.4003 16.895 22.5534C16.762 22.726 16.6625 22.9251 16.4633 23.3233L15.875 24.5L15.2867 23.3233C15.0875 22.9251 14.988 22.726 14.855 22.5534C14.737 22.4003 14.5997 22.263 14.4466 22.145C14.274 22.012 14.0749 21.9125 13.6767 21.7133L12.5 21.125L13.6767 20.5367C14.0749 20.3375 14.274 20.238 14.4466 20.105C14.5997 19.987 14.737 19.8497 14.855 19.6966C14.988 19.524 15.0875 19.3249 15.2867 18.9267L15.875 17.75Z" stroke="#6F3900" stroke-width="1.5" stroke-linecap="round" stroke-linejoin="round"/>
<path d="M22.25 9.5L23.134 11.7983C23.3455 12.3482 23.4512 12.6232 23.6157 12.8545C23.7614 13.0595 23.9405 13.2386 24.1455 13.3843C24.3768 13.5488 24.6518 13.6545 25.2017 13.866L27.5 14.75L25.2017 15.634C24.6518 15.8455 24.3768 15.9512 24.1455 16.1157C23.9405 16.2614 23.7614 16.4405 23.6157 16.6455C23.4512 16.8768 23.3455 17.1518 23.134 17.7017L22.25 20L21.366 17.7017C21.1545 17.1518 21.0488 16.8768 20.8843 16.6455C20.7386 16.4405 20.5595 16.2614 20.3545 16.1157C20.1232 15.9512 19.8482 15.8455 19.2983 15.634L17 14.75L19.2983 13.866C19.8482 13.6545 20.1232 13.5488 20.3545 13.3843C20.5595 13.2386 20.7386 13.0595 20.8843 12.8545C21.0488 12.6232 21.1545 12.3482 21.366 11.7983L22.25 9.5Z" stroke="#6F3900" stroke-width="1.5" stroke-linecap="round" stroke-linejoin="round"/>
</g>
<defs>
<clipPath id="clip0_11880_11761">
<rect width="18" height="18" fill="white" transform="translate(11 8)"/>
</clipPath>
</defs>
</svg>
