<svg width="40" height="40" viewBox="0 0 40 40" fill="none" xmlns="http://www.w3.org/2000/svg">
<path d="M20 0.75C29.0017 0.75 36.2498 7.76698 36.25 16.3633C36.25 21.3813 33.5267 25.1196 30.4277 28.333L29.8037 28.9697C29.4015 29.373 28.9928 29.7714 28.583 30.165L27.3555 31.332L27.25 31.4316C26.6127 32.035 25.9879 32.6277 25.3857 33.2207L24.791 33.8145C23.3217 35.305 22.0623 36.7752 21.1924 38.3359L21.0234 38.6494C20.8374 39.0073 20.4462 39.25 20 39.25C19.6097 39.25 19.2614 39.0644 19.0557 38.7783L18.9766 38.6494C18.2138 37.181 17.1012 35.798 15.7852 34.4102L15.209 33.8145C14.8183 33.4181 14.4157 33.024 14.0049 32.6279L12.75 31.4316L12.6445 31.332C12.0352 30.7552 11.4151 30.168 10.8037 29.5703L10.1963 28.9697C6.84831 25.6132 3.75 21.7159 3.75 16.3633C3.7502 7.76698 10.9983 0.75 20 0.75Z" fill="#FAE6F1" stroke="#AF1268" stroke-width="1.5" stroke-linecap="round" stroke-linejoin="round"/>
<path d="M24.125 17.25H20.375M24.125 20.25H20.375M24.125 14.25H20.375M17.75 11.25L17.75 24.75M16.85 11.25H23.15C24.4101 11.25 25.0402 11.25 25.5215 11.4952C25.9448 11.711 26.289 12.0552 26.5048 12.4785C26.75 12.9598 26.75 13.5899 26.75 14.85V21.15C26.75 22.4101 26.75 23.0402 26.5048 23.5215C26.289 23.9448 25.9448 24.289 25.5215 24.5048C25.0402 24.75 24.4101 24.75 23.15 24.75H16.85C15.5899 24.75 14.9598 24.75 14.4785 24.5048C14.0552 24.289 13.711 23.9448 13.4952 23.5215C13.25 23.0402 13.25 22.4101 13.25 21.15V14.85C13.25 13.5899 13.25 12.9598 13.4952 12.4785C13.711 12.0552 14.0552 11.711 14.4785 11.4952C14.9598 11.25 15.5899 11.25 16.85 11.25Z" stroke="#AF1268" stroke-width="1.5" stroke-linecap="round" stroke-linejoin="round"/>
</svg>
