<svg width="40" height="40" viewBox="0 0 40 40" fill="none" xmlns="http://www.w3.org/2000/svg">
<path fill-rule="evenodd" clip-rule="evenodd" d="M3 16.3636C3 7.32625 10.6112 0 20 0C29.3888 0 37 7.32625 37 16.3636C37 22.0347 33.706 26.1191 30.3348 29.499C29.5213 30.3145 28.6823 31.1088 27.8712 31.8765L27.7659 31.9762C26.9148 32.782 26.0962 33.5592 25.3251 34.3414C23.7749 35.9139 22.5092 37.4168 21.6895 38.9949C21.3695 39.6109 20.7155 40 20 40C19.2845 40 18.6305 39.6109 18.3105 38.9949C17.4908 37.4168 16.2251 35.9139 14.6749 34.3414C13.9038 33.5592 13.0852 32.782 12.2341 31.9762L12.1286 31.8764C11.3176 31.1086 10.4787 30.3145 9.66523 29.499C6.29397 26.1191 3 22.0347 3 16.3636Z" fill="#C41475"/>
<path d="M24.125 17.25H20.375M24.125 20.25H20.375M24.125 14.25H20.375M17.75 11.25L17.75 24.75M16.85 11.25H23.15C24.4101 11.25 25.0402 11.25 25.5215 11.4952C25.9448 11.711 26.289 12.0552 26.5048 12.4785C26.75 12.9598 26.75 13.5899 26.75 14.85V21.15C26.75 22.4101 26.75 23.0402 26.5048 23.5215C26.289 23.9448 25.9448 24.289 25.5215 24.5048C25.0402 24.75 24.4101 24.75 23.15 24.75H16.85C15.5899 24.75 14.9598 24.75 14.4785 24.5048C14.0552 24.289 13.711 23.9448 13.4952 23.5215C13.25 23.0402 13.25 22.4101 13.25 21.15V14.85C13.25 13.5899 13.25 12.9598 13.4952 12.4785C13.711 12.0552 14.0552 11.711 14.4785 11.4952C14.9598 11.25 15.5899 11.25 16.85 11.25Z" stroke="#F9F9FF" stroke-width="1.5" stroke-linecap="round" stroke-linejoin="round"/>
</svg>
