<svg width="40" height="40" viewBox="0 0 40 40" fill="none" xmlns="http://www.w3.org/2000/svg">
<path fill-rule="evenodd" clip-rule="evenodd" d="M3 16.3636C3 7.32625 10.6112 0 20 0C29.3888 0 37 7.32625 37 16.3636C37 22.0347 33.706 26.1191 30.3348 29.499C29.5213 30.3145 28.6823 31.1088 27.8712 31.8765L27.7659 31.9762C26.9148 32.782 26.0962 33.5592 25.3251 34.3414C23.7749 35.9139 22.5092 37.4168 21.6895 38.9949C21.3695 39.6109 20.7155 40 20 40C19.2845 40 18.6305 39.6109 18.3105 38.9949C17.4908 37.4168 16.2251 35.9139 14.6749 34.3414C13.9038 33.5592 13.0852 32.782 12.2341 31.9762L12.1286 31.8764C11.3176 31.1086 10.4787 30.3145 9.66523 29.499C6.29397 26.1191 3 22.0347 3 16.3636Z" fill="#181A1F"/>
<path d="M22.5594 9.7518V12.6446C22.5594 13.2857 22.6026 13.5675 22.0844 14.0753C21.9365 14.2206 21.7793 14.3348 21.6136 14.4212C21.3456 14.5217 21.0765 14.5072 20.6675 14.5072H19.9379H19.1306H17.4795C17.1187 14.5072 16.8242 14.7879 16.8242 15.1305V18.8706C16.8242 19.2151 17.1187 19.4961 17.4795 19.4961H18.6096H20.4644H21.6215C21.982 19.4961 22.2753 19.2151 22.2753 18.8706V15.9779C22.2753 15.3368 22.2319 15.0551 22.7504 14.5472C22.8981 14.4018 23.0553 14.2877 23.2211 14.2015C23.4888 14.1008 23.7583 14.1157 24.1673 14.1157H24.8966H25.7041H27.3553C27.7159 14.1157 28.0103 13.8346 28.0103 13.4919V9.7518C28.0103 9.40751 27.7159 9.12643 27.3553 9.12643H26.2251H24.3701H23.2132C22.8525 9.12643 22.5594 9.40751 22.5594 9.7518Z" fill="#F9F9FF"/>
<path d="M12.6946 20.421H16.1261C16.4426 20.421 16.6989 20.6683 16.6989 20.9728V24.3283C16.6989 24.6318 16.4426 24.8789 16.1261 24.8789H12.6946C12.3791 24.8789 12.125 24.6318 12.125 24.3283V20.9728C12.125 20.6683 12.3791 20.421 12.6946 20.421Z" fill="#F9F9FF"/>
</svg>
