<svg width="40" height="40" viewBox="0 0 40 40" fill="none" xmlns="http://www.w3.org/2000/svg">
<path d="M20 0.775391C28.9888 0.775391 36.2244 7.78168 36.2246 16.3633C36.2246 21.3715 33.5079 25.1043 30.4102 28.3164L29.7861 28.9512C29.384 29.3543 28.9752 29.7529 28.5654 30.1465L27.3389 31.3135L27.2334 31.4131C26.596 32.0165 25.9707 32.6098 25.3682 33.2031L24.7734 33.7969C23.3038 35.2877 22.0425 36.7597 21.1709 38.3232L21.002 38.6377C20.8204 38.9872 20.4374 39.2246 20 39.2246C19.6173 39.2246 19.2761 39.0433 19.0752 38.7637L18.998 38.6377C18.2337 37.1663 17.1197 35.7813 15.8027 34.3926L15.2266 33.7969C14.8357 33.4004 14.4334 33.0055 14.0225 32.6094L12.7666 31.4131L12.6611 31.3135C12.0519 30.7368 11.4323 30.1502 10.8213 29.5527L10.2139 28.9512C6.86677 25.5955 3.77539 21.7051 3.77539 16.3633C3.77559 7.78168 11.0112 0.775391 20 0.775391Z" fill="#F7F7F8" stroke="#181A1F" stroke-width="1.55" stroke-linecap="round" stroke-linejoin="round"/>
<path d="M22.5594 9.7518V12.6446C22.5594 13.2857 22.6026 13.5675 22.0844 14.0753C21.9365 14.2206 21.7793 14.3348 21.6136 14.4212C21.3456 14.5217 21.0765 14.5072 20.6675 14.5072H19.9379H19.1306H17.4795C17.1187 14.5072 16.8242 14.7879 16.8242 15.1305V18.8706C16.8242 19.2151 17.1187 19.4961 17.4795 19.4961H18.6096H20.4644H21.6215C21.982 19.4961 22.2753 19.2151 22.2753 18.8706V15.9779C22.2753 15.3368 22.2319 15.0551 22.7504 14.5472C22.8981 14.4018 23.0553 14.2877 23.2211 14.2015C23.4888 14.1008 23.7583 14.1157 24.1673 14.1157H24.8966H25.7041H27.3553C27.7159 14.1157 28.0103 13.8346 28.0103 13.4919V9.7518C28.0103 9.40751 27.7159 9.12643 27.3553 9.12643H26.2251H24.3701H23.2132C22.8525 9.12643 22.5594 9.40751 22.5594 9.7518Z" fill="#181A1F"/>
<path d="M12.6946 20.421H16.1261C16.4426 20.421 16.6989 20.6683 16.6989 20.9728V24.3283C16.6989 24.6318 16.4426 24.8789 16.1261 24.8789H12.6946C12.3791 24.8789 12.125 24.6318 12.125 24.3283V20.9728C12.125 20.6683 12.3791 20.421 12.6946 20.421Z" fill="#181A1F"/>
</svg>
