<svg width="40" height="40" viewBox="0 0 40 40" fill="none" xmlns="http://www.w3.org/2000/svg">
<path fill-rule="evenodd" clip-rule="evenodd" d="M3 16.3636C3 7.32625 10.6112 0 20 0C29.3888 0 37 7.32625 37 16.3636C37 22.0347 33.706 26.1191 30.3348 29.499C29.5213 30.3145 28.6823 31.1088 27.8712 31.8765L27.7659 31.9762C26.9148 32.782 26.0962 33.5592 25.3251 34.3414C23.7749 35.9139 22.5092 37.4168 21.6895 38.9949C21.3695 39.6109 20.7155 40 20 40C19.2845 40 18.6305 39.6109 18.3105 38.9949C17.4908 37.4168 16.2251 35.9139 14.6749 34.3414C13.9038 33.5592 13.0852 32.782 12.2341 31.9762L12.1286 31.8764C11.3176 31.1086 10.4787 30.3145 9.66523 29.499C6.29397 26.1191 3 22.0347 3 16.3636Z" fill="#145EC5"/>
<path d="M17 20.7491H23M19.2633 10.0721L14.1765 14.0284C13.8365 14.2929 13.6665 14.4251 13.544 14.5907C13.4355 14.7374 13.3547 14.9027 13.3055 15.0784C13.25 15.2767 13.25 15.4921 13.25 15.9229V21.3491C13.25 22.1892 13.25 22.6092 13.4135 22.9301C13.5573 23.2123 13.7868 23.4418 14.069 23.5856C14.3899 23.7491 14.8099 23.7491 15.65 23.7491H24.35C25.1901 23.7491 25.6101 23.7491 25.931 23.5856C26.2132 23.4418 26.4427 23.2123 26.5865 22.9301C26.75 22.6092 26.75 22.1892 26.75 21.3491V15.9229C26.75 15.4921 26.75 15.2767 26.6945 15.0784C26.6453 14.9027 26.5645 14.7374 26.456 14.5907C26.3335 14.4251 26.1635 14.2929 25.8235 14.0284L20.7367 10.0721C20.4732 9.86714 20.3415 9.76467 20.196 9.72529C20.0676 9.69053 19.9324 9.69053 19.804 9.72529C19.6585 9.76467 19.5268 9.86714 19.2633 10.0721Z" stroke="#F9F9FF" stroke-width="1.5" stroke-linecap="round" stroke-linejoin="round"/>
</svg>
