<svg width="40" height="40" viewBox="0 0 40 40" fill="none" xmlns="http://www.w3.org/2000/svg">
<path d="M20 0.75C29.0017 0.75 36.2498 7.76698 36.25 16.3633C36.25 21.3813 33.5267 25.1196 30.4277 28.333L29.8037 28.9697C29.4015 29.373 28.9928 29.7714 28.583 30.165L27.3555 31.332L27.25 31.4316C26.6127 32.035 25.9879 32.6277 25.3857 33.2207L24.791 33.8145C23.3217 35.305 22.0623 36.7752 21.1924 38.3359L21.0234 38.6494C20.8374 39.0073 20.4462 39.25 20 39.25C19.6097 39.25 19.2614 39.0644 19.0557 38.7783L18.9766 38.6494C18.2138 37.181 17.1012 35.798 15.7852 34.4102L15.209 33.8145C14.8183 33.4181 14.4157 33.024 14.0049 32.6279L12.75 31.4316L12.6445 31.332C12.0352 30.7552 11.4151 30.168 10.8037 29.5703L10.1963 28.9697C6.84831 25.6132 3.75 21.7159 3.75 16.3633C3.7502 7.76698 10.9983 0.75 20 0.75Z" fill="#E8F0FB" stroke="#1253AF" stroke-width="1.5" stroke-linecap="round" stroke-linejoin="round"/>
<path d="M17 20.7491H23M19.2633 10.0721L14.1765 14.0284C13.8365 14.2929 13.6665 14.4251 13.544 14.5907C13.4355 14.7374 13.3547 14.9027 13.3055 15.0784C13.25 15.2767 13.25 15.4921 13.25 15.9229V21.3491C13.25 22.1892 13.25 22.6092 13.4135 22.9301C13.5573 23.2123 13.7868 23.4418 14.069 23.5856C14.3899 23.7491 14.8099 23.7491 15.65 23.7491H24.35C25.1901 23.7491 25.6101 23.7491 25.931 23.5856C26.2132 23.4418 26.4427 23.2123 26.5865 22.9301C26.75 22.6092 26.75 22.1892 26.75 21.3491V15.9229C26.75 15.4921 26.75 15.2767 26.6945 15.0784C26.6453 14.9027 26.5645 14.7374 26.456 14.5907C26.3335 14.4251 26.1635 14.2929 25.8235 14.0284L20.7367 10.0721C20.4732 9.86714 20.3415 9.76467 20.196 9.72529C20.0676 9.69053 19.9324 9.69053 19.804 9.72529C19.6585 9.76467 19.5268 9.86714 19.2633 10.0721Z" stroke="#1253AF" stroke-width="1.5" stroke-linecap="round" stroke-linejoin="round"/>
</svg>
