<svg width="40" height="40" viewBox="0 0 40 40" fill="none" xmlns="http://www.w3.org/2000/svg">
<path fill-rule="evenodd" clip-rule="evenodd" d="M3 16.3636C3 7.32625 10.6112 0 20 0C29.3888 0 37 7.32625 37 16.3636C37 22.0347 33.706 26.1191 30.3348 29.499C29.5213 30.3145 28.6823 31.1088 27.8712 31.8765L27.7659 31.9762C26.9148 32.782 26.0962 33.5592 25.3251 34.3414C23.7749 35.9139 22.5092 37.4168 21.6895 38.9949C21.3695 39.6109 20.7155 40 20 40C19.2845 40 18.6305 39.6109 18.3105 38.9949C17.4908 37.4168 16.2251 35.9139 14.6749 34.3414C13.9038 33.5592 13.0852 32.782 12.2341 31.9762L12.1286 31.8764C11.3176 31.1086 10.4787 30.3145 9.66523 29.499C6.29397 26.1191 3 22.0347 3 16.3636Z" fill="#145EC5"/>
<path d="M16.625 16.25H14.45C14.03 16.25 13.8199 16.25 13.6595 16.3317C13.5184 16.4037 13.4037 16.5184 13.3317 16.6595C13.25 16.8199 13.25 17.03 13.25 17.45V23.75M23.375 16.25H25.55C25.97 16.25 26.1801 16.25 26.3405 16.3317C26.4816 16.4037 26.5963 16.5184 26.6683 16.6595C26.75 16.8199 26.75 17.03 26.75 17.45V23.75M23.375 23.75V12.65C23.375 11.8099 23.375 11.3899 23.2115 11.069C23.0677 10.7868 22.8382 10.5573 22.556 10.4135C22.2351 10.25 21.8151 10.25 20.975 10.25H19.025C18.1849 10.25 17.7649 10.25 17.444 10.4135C17.1618 10.5573 16.9323 10.7868 16.7885 11.069C16.625 11.3899 16.625 11.8099 16.625 12.65V23.75M27.5 23.75H12.5M19.25 13.25H20.75M19.25 16.25H20.75M19.25 19.25H20.75" stroke="#F9F9FF" stroke-width="1.5" stroke-linecap="round" stroke-linejoin="round"/>
</svg>
