<svg width="40" height="40" viewBox="0 0 40 40" fill="none" xmlns="http://www.w3.org/2000/svg">
<path d="M20 0.75C29.0017 0.75 36.2498 7.76698 36.25 16.3633C36.25 21.3813 33.5267 25.1196 30.4277 28.333L29.8037 28.9697C29.4015 29.373 28.9928 29.7714 28.583 30.165L27.3555 31.332L27.25 31.4316C26.6127 32.035 25.9879 32.6277 25.3857 33.2207L24.791 33.8145C23.3217 35.305 22.0623 36.7752 21.1924 38.3359L21.0234 38.6494C20.8374 39.0073 20.4462 39.25 20 39.25C19.6097 39.25 19.2614 39.0644 19.0557 38.7783L18.9766 38.6494C18.2138 37.181 17.1012 35.798 15.7852 34.4102L15.209 33.8145C14.8183 33.4181 14.4157 33.024 14.0049 32.6279L12.75 31.4316L12.6445 31.332C12.0352 30.7552 11.4151 30.168 10.8037 29.5703L10.1963 28.9697C6.84831 25.6132 3.75 21.7159 3.75 16.3633C3.7502 7.76698 10.9983 0.75 20 0.75Z" fill="#E8F0FB" stroke="#1253AF" stroke-width="1.5" stroke-linecap="round" stroke-linejoin="round"/>
<path d="M16.625 16.25H14.45C14.03 16.25 13.8199 16.25 13.6595 16.3317C13.5184 16.4037 13.4037 16.5184 13.3317 16.6595C13.25 16.8199 13.25 17.03 13.25 17.45V23.75M23.375 16.25H25.55C25.97 16.25 26.1801 16.25 26.3405 16.3317C26.4816 16.4037 26.5963 16.5184 26.6683 16.6595C26.75 16.8199 26.75 17.03 26.75 17.45V23.75M23.375 23.75V12.65C23.375 11.8099 23.375 11.3899 23.2115 11.069C23.0677 10.7868 22.8382 10.5573 22.556 10.4135C22.2351 10.25 21.8151 10.25 20.975 10.25H19.025C18.1849 10.25 17.7649 10.25 17.444 10.4135C17.1618 10.5573 16.9323 10.7868 16.7885 11.069C16.625 11.3899 16.625 11.8099 16.625 12.65V23.75M27.5 23.75H12.5M19.25 13.25H20.75M19.25 16.25H20.75M19.25 19.25H20.75" stroke="#1253AF" stroke-width="1.5" stroke-linecap="round" stroke-linejoin="round"/>
</svg>
