<svg width="40" height="40" viewBox="0 0 40 40" fill="none" xmlns="http://www.w3.org/2000/svg">
<path d="M20 0.75C29.0017 0.75 36.2498 7.76698 36.25 16.3633C36.25 21.3813 33.5267 25.1196 30.4277 28.333L29.8037 28.9697C29.4015 29.373 28.9928 29.7714 28.583 30.165L27.3555 31.332L27.25 31.4316C26.6127 32.035 25.9879 32.6277 25.3857 33.2207L24.791 33.8145C23.3217 35.305 22.0623 36.7752 21.1924 38.3359L21.0234 38.6494C20.8374 39.0073 20.4462 39.25 20 39.25C19.6097 39.25 19.2614 39.0644 19.0557 38.7783L18.9766 38.6494C18.2138 37.181 17.1012 35.798 15.7852 34.4102L15.209 33.8145C14.8183 33.4181 14.4157 33.024 14.0049 32.6279L12.75 31.4316L12.6445 31.332C12.0352 30.7552 11.4151 30.168 10.8037 29.5703L10.1963 28.9697C6.84831 25.6132 3.75 21.7159 3.75 16.3633C3.7502 7.76698 10.9983 0.75 20 0.75Z" fill="#E7F3ED" stroke="#095B32" stroke-width="1.5" stroke-linecap="round" stroke-linejoin="round"/>
<g clip-path="url(#clip0_11880_11756)">
<path d="M20 9.5V11M20 23V24.5M14 17H12.5M15.7356 12.7356L14.6749 11.6749M24.2644 12.7356L25.3251 11.6749M15.7356 21.2675L14.6749 22.3282M24.2644 21.2675L25.3251 22.3282M27.5 17H26M23.75 17C23.75 19.0711 22.0711 20.75 20 20.75C17.9289 20.75 16.25 19.0711 16.25 17C16.25 14.9289 17.9289 13.25 20 13.25C22.0711 13.25 23.75 14.9289 23.75 17Z" stroke="#095B32" stroke-width="1.5" stroke-linecap="round" stroke-linejoin="round"/>
</g>
<defs>
<clipPath id="clip0_11880_11756">
<rect width="18" height="18" fill="white" transform="translate(11 8)"/>
</clipPath>
</defs>
</svg>
