<svg width="40" height="40" viewBox="0 0 40 40" fill="none" xmlns="http://www.w3.org/2000/svg">
<path fill-rule="evenodd" clip-rule="evenodd" d="M3 16.3636C3 7.32625 10.6112 0 20 0C29.3888 0 37 7.32625 37 16.3636C37 22.0347 33.706 26.1191 30.3348 29.499C29.5213 30.3145 28.6823 31.1088 27.8712 31.8765L27.7659 31.9762C26.9148 32.782 26.0962 33.5592 25.3251 34.3414C23.7749 35.9139 22.5092 37.4168 21.6895 38.9949C21.3695 39.6109 20.7155 40 20 40C19.2845 40 18.6305 39.6109 18.3105 38.9949C17.4908 37.4168 16.2251 35.9139 14.6749 34.3414C13.9038 33.5592 13.0852 32.782 12.2341 31.9762L12.1286 31.8764C11.3176 31.1086 10.4787 30.3145 9.66523 29.499C6.29397 26.1191 3 22.0347 3 16.3636Z" fill="#0C7540"/>
<g clip-path="url(#clip0_11638_7416)">
<path d="M20 9.5V11M20 23V24.5M14 17H12.5M15.7356 12.7356L14.6749 11.6749M24.2644 12.7356L25.3251 11.6749M15.7356 21.2675L14.6749 22.3282M24.2644 21.2675L25.3251 22.3282M27.5 17H26M23.75 17C23.75 19.0711 22.0711 20.75 20 20.75C17.9289 20.75 16.25 19.0711 16.25 17C16.25 14.9289 17.9289 13.25 20 13.25C22.0711 13.25 23.75 14.9289 23.75 17Z" stroke="#F9F9FF" stroke-width="1.5" stroke-linecap="round" stroke-linejoin="round"/>
</g>
<defs>
<clipPath id="clip0_11638_7416">
<rect width="18" height="18" fill="white" transform="translate(11 8)"/>
</clipPath>
</defs>
</svg>
