<svg width="40" height="40" viewBox="0 0 40 40" fill="none" xmlns="http://www.w3.org/2000/svg">
<path fill-rule="evenodd" clip-rule="evenodd" d="M3 16.3636C3 7.32625 10.6112 0 20 0C29.3888 0 37 7.32625 37 16.3636C37 22.0347 33.706 26.1191 30.3348 29.499C29.5213 30.3145 28.6823 31.1088 27.8712 31.8765L27.7659 31.9762C26.9148 32.782 26.0962 33.5592 25.3251 34.3414C23.7749 35.9139 22.5092 37.4168 21.6895 38.9949C21.3695 39.6109 20.7155 40 20 40C19.2845 40 18.6305 39.6109 18.3105 38.9949C17.4908 37.4168 16.2251 35.9139 14.6749 34.3414C13.9038 33.5592 13.0852 32.782 12.2341 31.9762L12.1286 31.8764C11.3176 31.1086 10.4787 30.3145 9.66523 29.499C6.29397 26.1191 3 22.0347 3 16.3636Z" fill="#AA14C4"/>
<path d="M20 21.5003V12.1919C20 11.549 20 11.2275 20.1354 11.0339C20.2536 10.8649 20.4363 10.752 20.6404 10.7218C20.8741 10.6873 21.1616 10.8311 21.7367 11.1186L24.5 12.5003M20 21.5003C20 22.7429 18.9926 23.7503 17.75 23.7503C16.5074 23.7503 15.5 22.7429 15.5 21.5003C15.5 20.2576 16.5074 19.2503 17.75 19.2503C18.9926 19.2503 20 20.2576 20 21.5003Z" stroke="#F9F9FF" stroke-width="1.5" stroke-linecap="round" stroke-linejoin="round"/>
</svg>
