<svg width="40" height="40" viewBox="0 0 40 40" fill="none" xmlns="http://www.w3.org/2000/svg">
<path d="M20 0.75C29.0017 0.75 36.2498 7.76698 36.25 16.3633C36.25 21.3813 33.5267 25.1196 30.4277 28.333L29.8037 28.9697C29.4015 29.373 28.9928 29.7714 28.583 30.165L27.3555 31.332L27.25 31.4316C26.6127 32.035 25.9879 32.6277 25.3857 33.2207L24.791 33.8145C23.3217 35.305 22.0623 36.7752 21.1924 38.3359L21.0234 38.6494C20.8374 39.0073 20.4462 39.25 20 39.25C19.6097 39.25 19.2614 39.0644 19.0557 38.7783L18.9766 38.6494C18.2138 37.181 17.1012 35.798 15.7852 34.4102L15.209 33.8145C14.8183 33.4181 14.4157 33.024 14.0049 32.6279L12.75 31.4316L12.6445 31.332C12.0352 30.7552 11.4151 30.168 10.8037 29.5703L10.1963 28.9697C6.84831 25.6132 3.75 21.7159 3.75 16.3633C3.7502 7.76698 10.9983 0.75 20 0.75Z" fill="#F7E6FA" stroke="#9712AF" stroke-width="1.5" stroke-linecap="round" stroke-linejoin="round"/>
<path d="M20 21.5003V12.1919C20 11.549 20 11.2275 20.1354 11.0339C20.2536 10.8649 20.4363 10.752 20.6404 10.7218C20.8741 10.6873 21.1616 10.8311 21.7367 11.1186L24.5 12.5003M20 21.5003C20 22.7429 18.9926 23.7503 17.75 23.7503C16.5074 23.7503 15.5 22.7429 15.5 21.5003C15.5 20.2576 16.5074 19.2503 17.75 19.2503C18.9926 19.2503 20 20.2576 20 21.5003Z" stroke="#9712AF" stroke-width="1.5" stroke-linecap="round" stroke-linejoin="round"/>
</svg>
