<svg xmlns="http://www.w3.org/2000/svg" width="16" height="16" fill="none"><path d="M2.6666667 0C1.1893348 0 0 1.1893348 0 2.6666667V13.333333C0 14.810665 1.1893348 16 2.6666667 16H13.333333C14.810665 16 16 14.810665 16 13.333333V2.6666667C16 1.1893348 14.810665 0 13.333333 0Zm.08724 5.9036459h2.4596354c.076707 0 .1158854.037877.1158854.1145833v.4609375c0 .0815-.039179.1223958-.1158854.1223958H2.890625c-.09588 0-.1793888.033141-.2513021.1002602-.06712.067133-.1002604.1489253-.1002604.244792v.7760413c0 .095933.033141.1776587.1002604.244792.071913.067133.1554222.10026.2513021.10026h1.9713542c.076706 0 .1145833.04086.1145833.122396v.4609373c0 .076733-.037877.114584-.1145833.114584H2.890625c-.09588 0-.1793888.036207-.2513021.1080727-.06712.067133-.1002604.1489253-.1002604.2447913v1.7044277c0 .07667-.039179.114583-.1158854.114583h-.4596354c-.076707 0-.1145834-.03792-.1145834-.114583V9.1614587c0-.095867.033147-.1776587.1002604-.244792.06712-.0670667.1489052-.1002607.2447917-.1002607h.092448c.09588 0 .1776718-.034427.2447917-.101562.071913-.0671333.1080729-.1476233.1080729-.24349v-.101562c0-.095867-.03616-.1763567-.1080729-.24349-.06712-.0671333-.1489117-.1015627-.2447917-.1015627h-.092448c-.095886 0-.1776717-.033193-.2447917-.10026-.067113-.0719333-.1002604-.155436-.1002604-.251302V6.996094c0-.095933.033147-.1763567.1002604-.24349.06712-.071933.1489052-.1080727.2447917-.1080727h.092448c.09588 0 .1776718-.033141.2447917-.1002605.071913-.0671132.1080729-.1489117.1080729-.2447916v-.28125c0-.076707.037877-.1145834.1145837-.1145833zm4.3385417 0h2.5091147c.076733 0 .1158853.037877.1158853.1145833v.4609375c0 .0815-.039153.1223958-.1158853.1223958h-1.279948v4.2213545c0 .07667-.037853.114583-.1145834.114583h-.467448c-.076733 0-.1158853-.03792-.1158853-.114583V6.6015625H7.278646c-.095867 0-.1793687.033141-.251302.1002602-.067133.0671333-.1002607.1489253-.1002607.244792v.3307293c0 .076733-.039153.1145833-.1158853.1145833h-.4596355c-.076707 0-.1158854-.037853-.1158854-.1145833v-.467448c0-.076733.039179-.1145833.1158854-.1145833h.2799482c.095933 0 .177658-.034443.2447913-.1015627.067133-.06712.1002607-.1489117.1002607-.2447917v-.3307291c0-.076707.039153-.1145834.1158857-.1145833zm4.3867186 0h1.489583c.1582 0 .304535.031423.438802.09375.139.057533.258709.139325.359375.2447916.105466.1006799.187258.2203418.244792.359375.06233.1342135.09245.2806022.09245.4388022v.3515626c0 .076733-.03785.1158854-.114584.1158854h-.467448c-.07673 0-.114583-.039153-.114583-.1158854v-.7903648h-1.740885c-.09593 0-.179369.033141-.251302.1002602-.06707.067133-.101563.1489253-.101563.244792v.7760413c0 .095933.03449.1806713.101563.2526047.07193.067067.155368.10026.251302.10026h1.57552c.07667 0 .114584.037853.114584.1145833v.3242187c0 .095867.03313.179436.10026.2513026.07193.067133.156738.10026.252604.10026h.04297c.09587 0 .176357.034427.24349.1015627.07193.067067.108073.1489253.108073.2447913v.588542c0 .1582-.03011.3076147-.09245.4466147-.05753.134267-.139326.253841-.244792.359375-.100666.100666-.220375.182458-.359375.244792-.134267.05753-.280602.08594-.438802.08594h-1.216146c-.1534 0-.299735-.02841-.438802-.08594-.1342-.06233-.253909-.144126-.359375-.244792-.100666-.105534-.181156-.225108-.24349-.359375-.05753-.139-.08724-.2884147-.08724-.4466147v-.3515626c0-.076733.03915-.1158854.115885-.1158854h.459636c.07673 0 .114583.039153.114583.1158854v.7903643h2.09375V9.1184893c0-.095866-.03614-.177658-.108073-.2447913-.06713-.071867-.148858-.1080727-.244792-.1080727h-1.57552c-.07667 0-.114584-.037853-.114584-.114584v-.3242186c0-.095866-.03313-.1777247-.10026-.2447914-.06713-.071933-.148925-.1067706-.244792-.1067706h-.05078c-.09587 0-.176356-.034427-.243489-.1015627-.06713-.067067-.101563-.1489253-.101563-.244792v-.5820313c0-.095933.03443-.177658.101563-.2447914.06713-.071933.147623-.1067706.243489-.1067706h.05078c.09587 0 .177658-.034443.244792-.1015627.06713-.06712.10026-.1489117.10026-.2447917v-.3307291c0-.076707.03792-.1145834.114584-.1145833z" style="fill:#18181d;stroke-width:.666667"/></svg>