<svg xmlns="http://www.w3.org/2000/svg" width="32" height="32" fill="none"><path d="M5.333334 0C2.37867 0 0 2.37867 0 5.333334v21.333332C0 29.62133 2.37867 32 5.333334 32h21.333332C29.62133 32 32 29.62133 32 26.666666V5.333334C32 2.37867 29.62133 0 26.666666 0Zm.17448 11.807292h4.91927c.15342 0 .231772.07576.231772.229166v.921876c0 .163-.07836.244792-.231772.244792H5.78125c-.19176 0-.358778.06628-.502604.20052-.13424.13426-.20052.29785-.20052.489584v1.552082c0 .19186.06628.355318.20052.489584.14382.13426.310844.20052.502604.20052h3.942708c.15342 0 .229168.08172.229168.244792v.921874c0 .15346-.07576.229168-.229168.229168H5.78125c-.19176 0-.358778.07242-.502604.216146-.13424.13426-.20052.29785-.20052.489582v3.408856c0 .15334-.07836.229166-.231772.229166h-.919271c-.153414 0-.229166-.07584-.229166-.229166v-3.322916c0-.19174.06629-.355318.20052-.489584.13424-.13414.297811-.200522.489583-.200522h.1849c.19176 0 .355344-.06886.489584-.203124.14382-.13426.216146-.295246.216146-.48698v-.203124c0-.19174-.07232-.352714-.216146-.48698-.13424-.13426-.297824-.203126-.489584-.203126h-.1849c-.19178 0-.355342-.06638-.489583-.20052-.134226-.14386-.20052-.310872-.20052-.502604v-1.354166c0-.19186.06629-.352714.20052-.48698.13424-.14386.297811-.216146.489583-.216146h.1849c.19176 0 .355344-.06628.489584-.20052.14382-.13422.216146-.297824.216146-.489584v-.5625c0-.15342.07576-.229166.229168-.229166zm8.677082 0h5.01823c.15346 0 .23177.07576.23177.229166v.921876c0 .163-.0783.244792-.23177.244792H16.64323v8.442708c0 .15334-.0757.229166-.229166.229166h-.934896c-.15346 0-.231772-.07584-.231772-.229166v-8.442708h-.690104c-.19174 0-.358738.06628-.502604.20052-.13426.13426-.200522.29785-.200522.489584v.661458c0 .15346-.0783.229166-.23177.229166h-.91927c-.15342 0-.231772-.0757-.231772-.229166v-.934896c0-.15346.07836-.229166.231772-.229166h.559896c.19186 0 .355316-.06888.489582-.203126.13426-.13424.200522-.297824.200522-.489584v-.661458c0-.15342.0783-.229166.23177-.229166zm8.773438 0H25.9375c.3164 0 .60907.06284.877604.1875.278.11506.517418.27865.71875.489584.210932.201358.374516.440682.489584.71875.12466.268426.1849.561204.1849.877604v.703124c0 .15346-.0757.231772-.229168.231772h-.934896c-.15346 0-.229166-.0783-.229166-.231772v-1.580728h-3.48177c-.19186 0-.358738.06628-.502604.20052-.13414.13426-.203126.29785-.203126.489584v1.552082c0 .19186.06898.361342.203126.50521.14386.13414.310736.20052.502604.20052h3.15104c.15334 0 .229168.0757.229168.229166v.648438c0 .19174.06626.358872.20052.502604.14386.13426.313476.20052.505208.20052h.08594c.19174 0 .352714.06886.48698.203126.14386.13414.216146.29785.216146.489582v1.177084c0 .3164-.06022.61523-.1849.89323-.11506.268534-.278652.507682-.489584.71875-.201332.201332-.44075.364916-.71875.489584-.268534.11506-.561204.17188-.877604.17188H23.50521c-.3068 0-.59947-.05682-.877604-.17188-.2684-.12466-.507818-.288252-.71875-.489584-.201332-.211068-.362312-.450216-.48698-.71875-.11506-.278-.17448-.57683-.17448-.89323v-.703124c0-.15346.0783-.231772.23177-.231772h.919272c.15346 0 .229166.0783.229166.231772v1.580728h4.1875v-2.242188c0-.19174-.07228-.355316-.216146-.489582-.13426-.14374-.297716-.216146-.489584-.216146h-3.15104c-.15334 0-.229168-.0757-.229168-.229168v-.648436c0-.19174-.06626-.35545-.20052-.489584-.13426-.14386-.29785-.21354-.489584-.21354h-.10156c-.19174 0-.352712-.06886-.486978-.203126-.13426-.13414-.203126-.29785-.203126-.489584V14.09375c0-.19186.06886-.355316.203126-.489584.13426-.14386.295246-.21354.486978-.21354h.10156c.19174 0 .355316-.06888.489584-.203126.13426-.13424.20052-.297824.20052-.489584v-.661458c0-.15342.07584-.229166.229168-.229166z" style="fill:#18181d;stroke-width:1.33333"/></svg>