<svg xmlns="http://www.w3.org/2000/svg" width="24" height="24" fill="none"><path d="M4 0C1.7840022 0 0 1.7840022 0 4v16c0 2.215998 1.7840022 4 4 4h16c2.215998 0 4-1.784002 4-4V4c0-2.2159978-1.784002-4-4-4Zm.1308594 8.8554688h3.6894531c.1150599 0 .1738281.056815.1738281.171875V9.71875c0 .1222499-.058768.1835938-.1738281.1835938h-3.484375c-.1438199 0-.2690832.049711-.3769531.1503902-.1006799.1007-.1503907.223388-.1503906.367188v1.164062c0 .1439.049711.266488.1503906.367188.1078699.1007.2331332.15039.3769531.15039h2.9570313c.1150598 0 .171875.06129.171875.183594v.691406c0 .1151-.056815.171876-.171875.171876H4.3359375c-.1438199 0-.2690832.05431-.3769531.162109-.1006799.1007-.1503907.223388-.1503906.367187v2.556641c0 .115-.058768.171875-.1738282.171875h-.6894531c-.1150599 0-.171875-.05688-.171875-.171875v-2.492187c0-.1438.049721-.266488.1503906-.367188.1006799-.1006.2233577-.150391.3671875-.150391h.1386719c.1438199 0 .2665076-.05164.3671875-.152343.1078699-.1007.1621094-.221435.1621094-.365235v-.152343c0-.1438-.05424-.264535-.1621094-.365235-.1006799-.1007-.2233676-.152344-.3671875-.152344h-.1386719c-.1438298 0-.2665076-.04979-.3671875-.15039-.1006699-.1079-.1503906-.233154-.1503906-.376953v-1.015625c0-.1439.049721-.264535.1503906-.365235.1006799-.1079.2233577-.1621091.3671875-.1621091h.1386719c.1438199 0 .2665076-.049711.3671875-.1503907.1078699-.1006698.1621094-.2233676.1621094-.3671874v-.421875c0-.1150599.056815-.1718751.171875-.171875zm6.5078126 0h3.763672c.1151 0 .173828.056815.173828.171875V9.71875c0 .1222499-.05873.1835938-.173828.1835938h-1.919922v6.3320312c0 .115-.05678.171875-.171875.171875h-.701172c-.1151 0-.173828-.05688-.173828-.171875V9.9023438h-.517578c-.1438 0-.269053.049711-.376953.1503902-.1007.1007-.150391.223388-.150391.367188v.496094c0 .1151-.05873.171875-.173828.171875h-.6894532c-.1150599 0-.1738282-.05678-.1738282-.171875v-.701172c0-.1151.058768-.171875.1738282-.171875h.4199222c.143899 0 .266487-.051664.367187-.152344.1007-.1006799.150391-.2233676.150391-.3671875v-.4960937c0-.1150599.05873-.1718751.173828-.171875zm6.580078 0h2.234375c.2373 0 .456803.047135.658203.140625.2085.0863.388063.2089876.539063.3671874.158199.1510199.280887.3305128.367187.5390626.0935.2013202.138672.4209032.138672.6582032v.527344c0 .1151-.05677.173828-.171875.173828h-.701172c-.1151 0-.171875-.05873-.171875-.173828V9.9023438H17.5c-.1439 0-.269053.049711-.376953.1503902-.1006.1007-.152344.223388-.152344.367188v1.164062c0 .1439.05174.271007.152344.378907.1079.1006.233053.15039.376953.15039h2.363281c.115 0 .171875.05678.171875.171875v.486328c0 .1438.04969.269154.150391.376954.1079.100699.235106.15039.378906.15039h.06445c.1438 0 .264535.05164.365235.152344.1079.1006.162109.223388.162109.367187v.882813c0 .2373-.04517.461422-.138672.669922-.0863.2014-.208988.380762-.367187.539062-.151.151-.330563.273688-.539063.367188-.2014.0863-.420903.128906-.658203.128906h-1.824219c-.2301 0-.449603-.04261-.658203-.128906-.2013-.0935-.380863-.216188-.539062-.367188-.151-.1583-.271735-.337662-.365235-.539062-.0863-.2085-.130859-.432622-.130859-.669922v-.527344c.000003-.1151.058731-.173828.173831-.173828h.689453c.1151 0 .171875.05873.171875.173828v1.185547h3.140625v-1.681641c0-.143799-.05421-.266487-.162109-.367187-.1007-.1078-.223288-.162109-.367188-.162109H17.21875c-.115 0-.171875-.05678-.171875-.171876v-.486328c0-.143799-.04969-.266587-.150391-.367187-.1007-.1079-.223387-.160156-.367187-.160156h-.07617c-.1438 0-.264534-.05164-.365234-.152344-.1007-.1006-.152344-.223388-.152344-.367188v-.873047c0-.143899.05164-.266487.152344-.367187.1007-.1079.221434-.160156.365234-.160156h.07617c.1438 0 .266487-.051664.367187-.152344.1007-.1006799.150391-.2233676.150391-.3671875v-.4960937c0-.1150599.05688-.1718751.171875-.171875z" style="fill:#18181d"/></svg>