<svg width="32" height="32" viewBox="0 0 24 24" fill="none" xmlns="http://www.w3.org/2000/svg">
<path d="M15.412 2.33574V6.1928C15.412 7.04767 15.4697 7.42329 14.7786 8.10044C14.5815 8.29411 14.3718 8.44642 14.151 8.56161C13.7937 8.69557 13.4348 8.67623 12.8895 8.67623H11.9167H10.8403H8.63879C8.15774 8.67623 7.76514 9.05059 7.76514 9.50738V14.4942C7.76514 14.9535 8.15774 15.3281 8.63879 15.3281H10.1456H12.6187H14.1616C14.6422 15.3281 15.0333 14.9535 15.0333 14.4942V10.6372C15.0333 9.78236 14.9753 9.40674 15.6667 8.72959C15.8636 8.53578 16.0733 8.38361 16.2943 8.2687C16.6513 8.13446 17.0105 8.15422 17.5559 8.15422H18.5283H19.605H21.8065C22.2874 8.15422 22.6799 7.77944 22.6799 7.32251V2.33574C22.6799 1.87669 22.2874 1.50191 21.8065 1.50191H20.2997H17.8263H16.2837C15.8028 1.50191 15.412 1.87669 15.412 2.33574Z" fill="#FD827E"/>
<path d="M2.25943 16.562H6.83474C7.25678 16.562 7.59857 16.8918 7.59857 17.2978V21.7717C7.59857 22.1764 7.25678 22.5059 6.83474 22.5059H2.25943C1.83886 22.5059 1.5 22.1764 1.5 21.7717V17.2978C1.5 16.8918 1.83886 16.562 2.25943 16.562Z" fill="#FD827E"/>
</svg>
